<svg xmlns="http://www.w3.org/2000/svg" viewBox="0 0 1046.58 432.57"><defs><style>.cls-1{isolation:isolate;}.cls-2{fill:#ccc;}.cls-15,.cls-3{fill:#104d7b;}.cls-3{fill-rule:evenodd;}.cls-4{fill:#70b1c7;}.cls-5{fill:#e5e9ff;}.cls-6{fill:#fff;}.cls-7{fill:#e39308;}.cls-8{fill:#eab023;}.cls-9{fill:#eb3e75;}.cls-10{fill:#dc1b5e;}.cls-11{fill:#92ba3b;}.cls-12{fill:#75ccf2;}.cls-13{fill:#cbcacc;}.cls-14{fill:#bababa;}.cls-16{fill:#2143af;}.cls-17{fill:#e7b189;}.cls-18{fill:#f99ab6;}.cls-19{fill:#f7b75d;}.cls-20{fill:#b8b9f1;}.cls-21{fill:#fffeff;}.cls-22{fill:#8edef2;}.cls-23{fill:#121f55;}.cls-24{mix-blend-mode:multiply;}.cls-25{fill:#566cd3;}</style></defs><title>ProdInfoRep-Hero_1</title><g class="cls-1"><g id="Layer_2" data-name="Layer 2"><g id="Layer_2-2" data-name="Layer 2"><rect class="cls-2" x="451.5" y="335.05" width="140.11" height="87.95"/><path class="cls-3" d="M277.71,32H765.85a25,25,0,0,1,25,25V322.61a25.05,25.05,0,0,1-25,25H277.71a25.05,25.05,0,0,1-25-25V57A25,25,0,0,1,277.71,32Z"/><rect class="cls-4" x="269.31" y="46.56" width="504.94" height="256.42"/><rect class="cls-5" x="583.17" y="283.83" width="165.49" height="5.54" transform="translate(1331.82 573.21) rotate(180)"/><rect class="cls-5" x="583.17" y="269.34" width="165.49" height="5.54" transform="translate(1331.82 544.22) rotate(180)"/><rect class="cls-5" x="583.17" y="254.37" width="165.49" height="5.54" transform="translate(1331.82 514.29) rotate(180)"/><rect class="cls-5" x="583.17" y="239.41" width="165.49" height="5.54" transform="translate(1331.82 484.35) rotate(180)"/><path class="cls-6" d="M717,148.58A49.6,49.6,0,1,1,667.43,99,49.6,49.6,0,0,1,717,148.58Z"/><rect class="cls-7" x="718.7" y="65.56" width="35.2" height="27.08" transform="translate(154.95 537.83) rotate(-44.41)"/><path class="cls-8" d="M812.78,22.82A13.3,13.3,0,0,0,813,4h0a13.32,13.32,0,0,0-18.83-.2L737.53,59.27a13.3,13.3,0,0,0-.19,18.82h0a13.3,13.3,0,0,0,18.82.19Z"/><path class="cls-9" d="M584.88,145.42h24.19c2.13-30.31,27.67-52.36,57.65-53.7a49.43,49.43,0,0,1,18.11,2.62l7-24.2a81.85,81.85,0,0,0-107,75.28Z"/><path class="cls-10" d="M608.92,149.74H584.84a81.62,81.62,0,0,0,23.89,56.17L625,189.15C615.17,178.47,609,164.27,608.92,149.74Z"/><path class="cls-9" d="M666.72,207.34c-14.66.66-28.3-5.38-38.65-15.11l-16.26,16.7a81.93,81.93,0,0,0,136.84-59.19H724.53C724.41,182,698,205.94,666.72,207.34Z"/><path class="cls-10" d="M688.88,95.89c19.42,8.42,33.8,28.33,35.48,49.53h24.28A81.94,81.94,0,0,0,696,71.56Z"/><rect class="cls-6" x="296.28" y="110.17" width="121.23" height="35.71"/><rect class="cls-6" x="296.28" y="157.83" width="121.23" height="35.71"/><rect class="cls-6" x="296.28" y="62.51" width="121.23" height="35.71"/><circle class="cls-11" cx="314.13" cy="128.03" r="11.13"/><circle class="cls-11" cx="314.13" cy="175.69" r="11.13"/><circle class="cls-12" cx="314.13" cy="80.36" r="11.13"/><rect class="cls-13" x="331.54" y="134.91" width="20.96" height="2.72"/><rect class="cls-13" x="359.92" y="134.91" width="46.1" height="2.72" transform="translate(765.94 272.55) rotate(180)"/><rect class="cls-13" x="331.54" y="126.67" width="53.53" height="2.72"/><rect class="cls-13" x="331.54" y="182.57" width="42.4" height="2.72"/><rect class="cls-13" x="331.54" y="174.33" width="74.15" height="2.72"/><rect class="cls-14" x="331.54" y="118.42" width="33.33" height="2.72"/><rect class="cls-14" x="372.29" y="118.42" width="28.78" height="2.72" transform="translate(773.36 239.56) rotate(180)"/><rect class="cls-14" x="331.54" y="166.08" width="20.13" height="2.72"/><rect class="cls-14" x="359.09" y="166.08" width="31.26" height="2.72" transform="translate(749.44 334.88) rotate(180)"/><rect class="cls-14" x="331.54" y="70.76" width="42.4" height="2.72"/><rect class="cls-14" x="381.36" y="70.76" width="28.78" height="2.72" transform="translate(791.51 144.23) rotate(180)"/><rect class="cls-13" x="331.54" y="87.25" width="32.5" height="2.72"/><rect class="cls-13" x="371.46" y="87.25" width="28.78" height="2.72" transform="translate(771.71 177.22) rotate(180)"/><rect class="cls-13" x="331.54" y="79" width="60.13" height="2.72"/><rect class="cls-6" x="296.28" y="252.59" width="121.23" height="35.71"/><rect class="cls-6" x="296.28" y="204.92" width="121.23" height="35.71"/><circle class="cls-11" cx="314.13" cy="270.44" r="11.13"/><circle class="cls-12" cx="314.13" cy="222.78" r="11.13"/><rect class="cls-13" x="331.54" y="277.33" width="20.96" height="2.72"/><rect class="cls-13" x="359.92" y="277.33" width="46.1" height="2.72" transform="translate(765.94 557.37) rotate(180)"/><rect class="cls-13" x="331.54" y="269.08" width="53.53" height="2.72"/><rect class="cls-14" x="331.54" y="260.83" width="33.33" height="2.72"/><rect class="cls-14" x="372.29" y="260.83" width="28.78" height="2.72" transform="translate(773.36 524.38) rotate(180)"/><rect class="cls-14" x="331.54" y="213.17" width="42.4" height="2.72"/><rect class="cls-14" x="381.36" y="213.17" width="28.78" height="2.72" transform="translate(791.51 429.06) rotate(180)"/><rect class="cls-13" x="331.54" y="229.66" width="32.5" height="2.72"/><rect class="cls-13" x="371.46" y="229.66" width="28.78" height="2.72" transform="translate(771.71 462.05) rotate(180)"/><rect class="cls-13" x="331.54" y="221.42" width="60.13" height="2.72"/><rect class="cls-6" x="433.11" y="252.59" width="121.23" height="35.71"/><rect class="cls-6" x="433.11" y="204.92" width="121.23" height="35.71"/><circle class="cls-11" cx="450.96" cy="270.44" r="11.13"/><circle class="cls-12" cx="450.96" cy="222.78" r="11.13"/><rect class="cls-13" x="468.36" y="277.33" width="20.96" height="2.72"/><rect class="cls-13" x="496.74" y="277.33" width="46.1" height="2.72" transform="translate(1039.59 557.37) rotate(180)"/><rect class="cls-13" x="468.36" y="269.08" width="53.53" height="2.72"/><rect class="cls-14" x="468.36" y="260.83" width="33.33" height="2.72"/><rect class="cls-14" x="509.12" y="260.83" width="28.78" height="2.72" transform="translate(1047.02 524.38) rotate(180)"/><rect class="cls-14" x="468.36" y="213.17" width="42.4" height="2.72"/><rect class="cls-14" x="518.19" y="213.17" width="28.78" height="2.72" transform="translate(1065.16 429.06) rotate(180)"/><rect class="cls-13" x="468.36" y="229.66" width="32.5" height="2.72"/><rect class="cls-13" x="508.29" y="229.66" width="28.78" height="2.72" transform="translate(1045.37 462.05) rotate(180)"/><rect class="cls-13" x="468.36" y="221.42" width="60.13" height="2.72"/><rect class="cls-6" x="433.11" y="110.17" width="121.23" height="35.71"/><rect class="cls-6" x="433.11" y="157.83" width="121.23" height="35.71"/><rect class="cls-6" x="433.11" y="62.51" width="121.23" height="35.71"/><circle class="cls-11" cx="450.96" cy="128.03" r="11.13"/><circle class="cls-11" cx="450.96" cy="175.69" r="11.13"/><circle class="cls-12" cx="450.96" cy="80.36" r="11.13"/><rect class="cls-13" x="468.36" y="134.91" width="20.96" height="2.72"/><rect class="cls-13" x="496.74" y="134.91" width="46.1" height="2.72" transform="translate(1039.59 272.55) rotate(180)"/><rect class="cls-13" x="468.36" y="126.67" width="53.53" height="2.72"/><rect class="cls-13" x="468.36" y="182.57" width="42.4" height="2.72"/><rect class="cls-13" x="468.36" y="174.33" width="74.15" height="2.72"/><rect class="cls-14" x="468.36" y="118.42" width="33.33" height="2.72"/><rect class="cls-14" x="509.12" y="118.42" width="28.78" height="2.72" transform="translate(1047.02 239.56) rotate(180)"/><rect class="cls-14" x="468.36" y="166.08" width="20.13" height="2.72"/><rect class="cls-14" x="495.92" y="166.08" width="31.26" height="2.72" transform="translate(1023.1 334.88) rotate(180)"/><rect class="cls-14" x="468.36" y="70.76" width="42.4" height="2.72"/><rect class="cls-14" x="518.19" y="70.76" width="28.78" height="2.72" transform="translate(1065.16 144.23) rotate(180)"/><rect class="cls-13" x="468.36" y="87.25" width="32.5" height="2.72"/><rect class="cls-13" x="508.29" y="87.25" width="28.78" height="2.72" transform="translate(1045.37 177.22) rotate(180)"/><rect class="cls-13" x="468.36" y="79" width="60.13" height="2.72"/><path class="cls-15" d="M276.22,414.17H766.76c4.14,0,7.49,4.08,7.49,9.11v.19c0,5-3.35,9.1-7.49,9.1H276.22c-4.13,0-7.49-4.08-7.49-9.1v-.19C268.73,418.25,272.09,414.17,276.22,414.17Z"/><path class="cls-6" d="M230.83,56.75v7c0,5.84,9.75,10.58,21.77,10.58s21.76-4.74,21.76-10.58v-7Z"/><path class="cls-15" d="M252.6,76.35c-13.54,0-23.74-5.39-23.74-12.55v-9h47.47v9C276.33,71,266.13,76.35,252.6,76.35ZM232.81,63.8c0,4.07,8.46,8.61,19.79,8.61s19.78-4.54,19.78-8.61V58.72H232.81Z"/><path class="cls-6" d="M230.83,48.2v7.06c0,5.84,9.75,10.58,21.77,10.58s21.76-4.74,21.76-10.58V48.2Z"/><path class="cls-15" d="M252.6,67.81c-13.54,0-23.74-5.4-23.74-12.55v-9h47.47v9C276.33,62.41,266.13,67.81,252.6,67.81ZM232.81,55.26c0,4.06,8.46,8.6,19.79,8.6s19.78-4.54,19.78-8.6V50.18H232.81Z"/><path class="cls-6" d="M230.83,39.66v7.05c0,5.84,9.75,10.58,21.77,10.58s21.76-4.74,21.76-10.58V39.66Z"/><path class="cls-15" d="M252.6,59.27c-13.54,0-23.74-5.4-23.74-12.55v-9h47.47v9C276.33,53.87,266.13,59.27,252.6,59.27ZM232.81,46.72c0,4.06,8.46,8.6,19.79,8.6s19.78-4.54,19.78-8.6V41.63H232.81Z"/><path class="cls-6" d="M230.83,31.12v7.05c0,5.84,9.75,10.58,21.77,10.58S274.36,44,274.36,38.17v-7Z"/><path class="cls-15" d="M252.6,50.72c-13.54,0-23.74-5.39-23.74-12.55v-9h47.47v9C276.33,45.33,266.13,50.72,252.6,50.72ZM232.81,38.17c0,4.06,8.46,8.6,19.79,8.6s19.78-4.54,19.78-8.6V33.09H232.81Z"/><path class="cls-6" d="M230.83,20.81v8.81c0,5.84,9.75,10.58,21.77,10.58s21.76-4.74,21.76-10.58V20.81Z"/><path class="cls-15" d="M252.6,42.18c-13.54,0-23.74-5.4-23.74-12.56V18.83h47.47V29.62C276.33,36.78,266.13,42.18,252.6,42.18ZM232.81,29.62c0,4.07,8.46,8.61,19.79,8.61s19.78-4.54,19.78-8.61V22.78H232.81Z"/><path class="cls-6" d="M274.36,20.81c0,5.84-9.74,10.58-21.76,10.58s-21.77-4.74-21.77-10.58,9.75-10.58,21.77-10.58S274.36,15,274.36,20.81Z"/><path class="cls-15" d="M252.6,33.36c-13.54,0-23.74-5.4-23.74-12.55S239.06,8.25,252.6,8.25s23.73,5.4,23.73,12.56S266.13,33.36,252.6,33.36Zm0-21.16c-11.84,0-19.79,4.45-19.79,8.61s7.95,8.6,19.79,8.6,19.78-4.45,19.78-8.6S263.92,12.2,252.6,12.2Z"/><path class="cls-6" d="M631.56,394.54v9.36c0,7.75,12.93,14,28.88,14s28.87-6.29,28.87-14v-9.36Z"/><path class="cls-15" d="M660.44,420.56c-18,0-31.5-7.16-31.5-16.66v-12h63v12C691.93,413.4,678.39,420.56,660.44,420.56ZM634.18,403.9c0,5.39,11.23,11.42,26.26,11.42s26.25-6,26.25-11.42v-6.74H634.18Z"/><path class="cls-6" d="M631.56,383.2v9.37c0,7.74,12.93,14,28.88,14s28.87-6.29,28.87-14V383.2Z"/><path class="cls-15" d="M660.44,409.22c-18,0-31.5-7.16-31.5-16.65v-12h63v12C691.93,402.06,678.39,409.22,660.44,409.22Zm-26.26-16.65c0,5.38,11.23,11.41,26.26,11.41s26.25-6,26.25-11.41v-6.74H634.18Z"/><path class="cls-6" d="M631.56,371.87v9.36c0,7.75,12.93,14,28.88,14s28.87-6.28,28.87-14v-9.36Z"/><path class="cls-15" d="M660.44,397.89c-18,0-31.5-7.17-31.5-16.66v-12h63v12C691.93,390.72,678.39,397.89,660.44,397.89Zm-26.26-16.66c0,5.39,11.23,11.41,26.26,11.41s26.25-6,26.25-11.41v-6.74H634.18Z"/><path class="cls-6" d="M631.56,360.53v9.36c0,7.75,12.93,14,28.88,14s28.87-6.29,28.87-14v-9.36Z"/><path class="cls-15" d="M660.44,386.54c-18,0-31.5-7.15-31.5-16.65v-12h63v12C691.93,379.39,678.39,386.54,660.44,386.54Zm-26.26-16.65c0,5.39,11.23,11.41,26.26,11.41s26.25-6,26.25-11.41v-6.74H634.18Z"/><path class="cls-6" d="M631.56,346.85v11.7c0,7.75,12.93,14,28.88,14s28.87-6.29,28.87-14v-11.7Z"/><path class="cls-15" d="M660.44,375.21c-18,0-31.5-7.16-31.5-16.66V344.23h63v14.32C691.93,368.05,678.39,375.21,660.44,375.21Zm-26.26-16.66c0,5.39,11.23,11.42,26.26,11.42s26.25-6,26.25-11.42v-9.08H634.18Z"/><path class="cls-6" d="M689.31,346.85c0,7.76-12.92,14-28.87,14s-28.88-6.28-28.88-14,12.93-14,28.88-14S689.31,339.1,689.31,346.85Z"/><path class="cls-15" d="M660.44,363.51c-18,0-31.5-7.16-31.5-16.66s13.54-16.66,31.5-16.66,31.49,7.17,31.49,16.66S678.39,363.51,660.44,363.51Zm0-28.07c-15.71,0-26.26,5.9-26.26,11.41s10.55,11.42,26.26,11.42,26.25-5.9,26.25-11.42S675.46,335.44,660.44,335.44Z"/><rect class="cls-15" y="134.8" width="240.85" height="297.77"/><path class="cls-6" d="M227.75,182v-34.7H13.12V182H23.7v15.17H13.12v34.7H227.75v-34.7h-12.2V182ZM51.6,217.59h-15V202.94h15Zm0-20.91h-15V182h15Zm0-20.53h-15V161.46h15Zm22.17,41.44h-15V202.94h15Zm0-20.91h-15V182h15Zm0-20.53h-15V161.46h15Zm21.82,41.44h-15V202.94h15Zm0-20.91h-15V182h15Zm0-20.53h-15V161.46h15Zm21.61,41.44h-15V202.94h15Zm0-20.91h-15V182h15Zm0-20.53h-15V161.46h15Zm22.17,41.44h-15V202.94h15Zm0-20.91h-15V182h15Zm0-20.53h-15V161.46h15Zm21.85,41.44h-15V202.94h15Zm0-20.91h-15V182h15Zm0-20.53h-15V161.46h15Zm32.46,41H175.42v-8.93h18.26Zm-9.74-25.08c-8.54,0-14.39-6.92-14.39-15.46s5.85-15.46,14.39-15.46a15.46,15.46,0,0,1,0,30.92Z"/><rect class="cls-11" x="175.42" y="208.24" width="18.25" height="8.93"/><path class="cls-11" d="M199.37,176.63a15.45,15.45,0,0,1-15.43,15.46c-8.54,0-14.39-6.92-14.39-15.46s5.85-15.46,14.39-15.46A15.45,15.45,0,0,1,199.37,176.63Z"/><rect class="cls-11" x="36.61" y="161.46" width="14.98" height="14.68"/><rect class="cls-11" x="58.79" y="161.46" width="14.99" height="14.68"/><rect class="cls-11" x="80.61" y="161.46" width="14.98" height="14.68"/><rect class="cls-11" x="102.24" y="161.46" width="14.95" height="14.68"/><rect class="cls-11" x="124.39" y="161.46" width="14.98" height="14.68"/><rect class="cls-11" x="146.24" y="161.46" width="14.98" height="14.68"/><rect class="cls-11" x="146.24" y="182.02" width="14.98" height="14.65"/><rect class="cls-11" x="124.39" y="182.02" width="14.98" height="14.65"/><rect class="cls-11" x="102.24" y="182.02" width="14.95" height="14.65"/><rect class="cls-11" x="80.61" y="182.02" width="14.98" height="14.65"/><rect class="cls-11" x="58.79" y="182.02" width="14.99" height="14.65"/><rect class="cls-11" x="36.61" y="182.02" width="14.98" height="14.65"/><rect class="cls-11" x="36.61" y="202.94" width="14.98" height="14.65"/><rect class="cls-11" x="58.79" y="202.94" width="14.99" height="14.65"/><rect class="cls-11" x="80.61" y="202.94" width="14.98" height="14.65"/><rect class="cls-11" x="102.24" y="202.94" width="14.95" height="14.65"/><rect class="cls-11" x="124.39" y="202.94" width="14.98" height="14.65"/><rect class="cls-11" x="146.24" y="202.94" width="14.98" height="14.65"/><path class="cls-6" d="M227.75,369.7V335H13.12v34.7H23.7v15.17H13.12v34.7H227.75v-34.7h-12.2V369.7ZM51.6,405.34h-15V390.68h15Zm0-20.92h-15V369.76h15Zm0-20.53h-15V349.21h15Zm22.17,41.45h-15V390.68h15Zm0-20.92h-15V369.76h15Zm0-20.53h-15V349.21h15Zm21.82,41.45h-15V390.68h15Zm0-20.92h-15V369.76h15Zm0-20.53h-15V349.21h15Zm21.61,41.45h-15V390.68h15Zm0-20.92h-15V369.76h15Zm0-20.53h-15V349.21h15Zm22.17,41.45h-15V390.68h15Zm0-20.92h-15V369.76h15Zm0-20.53h-15V349.21h15Zm21.85,41.45h-15V390.68h15Zm0-20.92h-15V369.76h15Zm0-20.53h-15V349.21h15Zm32.46,41H175.42V396h18.26Zm-9.74-25.09c-8.54,0-14.39-6.92-14.39-15.46s5.85-15.46,14.39-15.46a15.46,15.46,0,0,1,0,30.92Z"/><rect class="cls-11" x="175.42" y="395.99" width="18.25" height="8.93"/><path class="cls-11" d="M199.37,364.37a15.45,15.45,0,0,1-15.43,15.46c-8.54,0-14.39-6.92-14.39-15.46s5.85-15.46,14.39-15.46A15.45,15.45,0,0,1,199.37,364.37Z"/><rect class="cls-11" x="36.61" y="349.21" width="14.98" height="14.68"/><rect class="cls-11" x="58.79" y="349.21" width="14.99" height="14.68"/><rect class="cls-11" x="80.61" y="349.21" width="14.98" height="14.68"/><rect class="cls-11" x="102.24" y="349.21" width="14.95" height="14.68"/><rect class="cls-11" x="124.39" y="349.21" width="14.98" height="14.68"/><rect class="cls-11" x="146.24" y="349.21" width="14.98" height="14.68"/><rect class="cls-11" x="146.24" y="369.76" width="14.98" height="14.66"/><rect class="cls-11" x="124.39" y="369.76" width="14.98" height="14.66"/><rect class="cls-11" x="102.24" y="369.76" width="14.95" height="14.66"/><rect class="cls-11" x="80.61" y="369.76" width="14.98" height="14.66"/><rect class="cls-11" x="58.79" y="369.76" width="14.99" height="14.66"/><rect class="cls-11" x="36.61" y="369.76" width="14.98" height="14.66"/><rect class="cls-11" x="36.61" y="390.68" width="14.98" height="14.65"/><rect class="cls-11" x="58.79" y="390.68" width="14.99" height="14.65"/><rect class="cls-11" x="80.61" y="390.68" width="14.98" height="14.65"/><rect class="cls-11" x="102.24" y="390.68" width="14.95" height="14.65"/><rect class="cls-11" x="124.39" y="390.68" width="14.98" height="14.65"/><rect class="cls-11" x="146.24" y="390.68" width="14.98" height="14.65"/><path class="cls-6" d="M227.75,275.83v-34.7H13.12v34.7H23.7V291H13.12v34.7H227.75V291h-12.2V275.83ZM51.6,311.47h-15V296.81h15Zm0-20.92h-15V275.89h15Zm0-20.53h-15V255.34h15Zm22.17,41.45h-15V296.81h15Zm0-20.92h-15V275.89h15Zm0-20.53h-15V255.34h15Zm21.82,41.45h-15V296.81h15Zm0-20.92h-15V275.89h15Zm0-20.53h-15V255.34h15Zm21.61,41.45h-15V296.81h15Zm0-20.92h-15V275.89h15Zm0-20.53h-15V255.34h15Zm22.17,41.45h-15V296.81h15Zm0-20.92h-15V275.89h15Zm0-20.53h-15V255.34h15Zm21.85,41.45h-15V296.81h15Zm0-20.92h-15V275.89h15Zm0-20.53h-15V255.34h15Zm32.46,41H175.42v-8.92h18.26ZM183.94,286c-8.54,0-14.39-6.92-14.39-15.46S175.4,255,183.94,255a15.46,15.46,0,0,1,0,30.92Z"/><rect class="cls-11" x="175.42" y="302.12" width="18.25" height="8.93"/><path class="cls-11" d="M199.37,270.5A15.45,15.45,0,0,1,183.94,286c-8.54,0-14.39-6.92-14.39-15.46S175.4,255,183.94,255A15.45,15.45,0,0,1,199.37,270.5Z"/><rect class="cls-11" x="36.61" y="255.34" width="14.98" height="14.68"/><rect class="cls-11" x="58.79" y="255.34" width="14.99" height="14.68"/><rect class="cls-11" x="80.61" y="255.34" width="14.98" height="14.68"/><rect class="cls-11" x="102.24" y="255.34" width="14.95" height="14.68"/><rect class="cls-11" x="124.39" y="255.34" width="14.98" height="14.68"/><rect class="cls-11" x="146.24" y="255.34" width="14.98" height="14.68"/><rect class="cls-11" x="146.24" y="275.89" width="14.98" height="14.66"/><rect class="cls-11" x="124.39" y="275.89" width="14.98" height="14.66"/><rect class="cls-11" x="102.24" y="275.89" width="14.95" height="14.66"/><rect class="cls-11" x="80.61" y="275.89" width="14.98" height="14.66"/><rect class="cls-11" x="58.79" y="275.89" width="14.99" height="14.66"/><rect class="cls-11" x="36.61" y="275.89" width="14.98" height="14.66"/><rect class="cls-11" x="36.61" y="296.81" width="14.98" height="14.65"/><rect class="cls-11" x="58.79" y="296.81" width="14.99" height="14.65"/><rect class="cls-11" x="80.61" y="296.81" width="14.98" height="14.65"/><rect class="cls-11" x="102.24" y="296.81" width="14.95" height="14.65"/><rect class="cls-11" x="124.39" y="296.81" width="14.98" height="14.65"/><rect class="cls-11" x="146.24" y="296.81" width="14.98" height="14.65"/><rect class="cls-15" x="805.74" y="134.8" width="240.85" height="297.77"/><path class="cls-6" d="M1033.49,182v-34.7H818.86V182h10.58v15.17H818.86v34.7h214.63v-34.7h-12.2V182ZM857.33,217.59h-15V202.94h15Zm0-20.91h-15V182h15Zm0-20.53h-15V161.46h15Zm22.18,41.44h-15V202.94h15Zm0-20.91h-15V182h15Zm0-20.53h-15V161.46h15Zm21.82,41.44h-15V202.94h15Zm0-20.91h-15V182h15Zm0-20.53h-15V161.46h15Zm21.6,41.44H908V202.94h14.95Zm0-20.91H908V182h14.95Zm0-20.53H908V161.46h14.95Zm22.18,41.44h-15V202.94h15Zm0-20.91h-15V182h15Zm0-20.53h-15V161.46h15ZM967,217.59H952V202.94h15Zm0-20.91H952V182h15Zm0-20.53H952V161.46h15Zm32.45,41H981.16v-8.93h18.25Zm-9.74-25.08c-8.54,0-14.38-6.92-14.38-15.46s5.84-15.46,14.38-15.46a15.46,15.46,0,0,1,0,30.92Z"/><rect class="cls-11" x="981.16" y="208.24" width="18.25" height="8.93"/><path class="cls-11" d="M1005.11,176.63a15.45,15.45,0,0,1-15.44,15.46c-8.54,0-14.38-6.92-14.38-15.46s5.84-15.46,14.38-15.46A15.45,15.45,0,0,1,1005.11,176.63Z"/><rect class="cls-11" x="842.35" y="161.46" width="14.98" height="14.68"/><rect class="cls-11" x="864.53" y="161.46" width="14.99" height="14.68"/><rect class="cls-11" x="886.34" y="161.46" width="14.98" height="14.68"/><rect class="cls-11" x="907.98" y="161.46" width="14.95" height="14.68"/><rect class="cls-11" x="930.13" y="161.46" width="14.98" height="14.68"/><rect class="cls-11" x="951.97" y="161.46" width="14.98" height="14.68"/><rect class="cls-11" x="951.97" y="182.02" width="14.98" height="14.65"/><rect class="cls-11" x="930.13" y="182.02" width="14.98" height="14.65"/><rect class="cls-11" x="907.98" y="182.02" width="14.95" height="14.65"/><rect class="cls-11" x="886.34" y="182.02" width="14.98" height="14.65"/><rect class="cls-11" x="864.53" y="182.02" width="14.99" height="14.65"/><rect class="cls-11" x="842.35" y="182.02" width="14.98" height="14.65"/><rect class="cls-11" x="842.35" y="202.94" width="14.98" height="14.65"/><rect class="cls-11" x="864.53" y="202.94" width="14.99" height="14.65"/><rect class="cls-11" x="886.34" y="202.94" width="14.98" height="14.65"/><rect class="cls-11" x="907.98" y="202.94" width="14.95" height="14.65"/><rect class="cls-11" x="930.13" y="202.94" width="14.98" height="14.65"/><rect class="cls-11" x="951.97" y="202.94" width="14.98" height="14.65"/><path class="cls-6" d="M1033.49,369.7V335H818.86v34.7h10.58v15.17H818.86v34.7h214.63v-34.7h-12.2V369.7ZM857.33,405.34h-15V390.68h15Zm0-20.92h-15V369.76h15Zm0-20.53h-15V349.21h15Zm22.18,41.45h-15V390.68h15Zm0-20.92h-15V369.76h15Zm0-20.53h-15V349.21h15Zm21.82,41.45h-15V390.68h15Zm0-20.92h-15V369.76h15Zm0-20.53h-15V349.21h15Zm21.6,41.45H908V390.68h14.95Zm0-20.92H908V369.76h14.95Zm0-20.53H908V349.21h14.95Zm22.18,41.45h-15V390.68h15Zm0-20.92h-15V369.76h15Zm0-20.53h-15V349.21h15ZM967,405.34H952V390.68h15Zm0-20.92H952V369.76h15Zm0-20.53H952V349.21h15Zm32.45,41H981.16V396h18.25Zm-9.74-25.09c-8.54,0-14.38-6.92-14.38-15.46s5.84-15.46,14.38-15.46a15.46,15.46,0,0,1,0,30.92Z"/><rect class="cls-11" x="981.16" y="395.99" width="18.25" height="8.93"/><path class="cls-11" d="M1005.11,364.37a15.45,15.45,0,0,1-15.44,15.46c-8.54,0-14.38-6.92-14.38-15.46s5.84-15.46,14.38-15.46A15.45,15.45,0,0,1,1005.11,364.37Z"/><rect class="cls-11" x="842.35" y="349.21" width="14.98" height="14.68"/><rect class="cls-11" x="864.53" y="349.21" width="14.99" height="14.68"/><rect class="cls-11" x="886.34" y="349.21" width="14.98" height="14.68"/><rect class="cls-11" x="907.98" y="349.21" width="14.95" height="14.68"/><rect class="cls-11" x="930.13" y="349.21" width="14.98" height="14.68"/><rect class="cls-11" x="951.97" y="349.21" width="14.98" height="14.68"/><rect class="cls-11" x="951.97" y="369.76" width="14.98" height="14.66"/><rect class="cls-11" x="930.13" y="369.76" width="14.98" height="14.66"/><rect class="cls-11" x="907.98" y="369.76" width="14.95" height="14.66"/><rect class="cls-11" x="886.34" y="369.76" width="14.98" height="14.66"/><rect class="cls-11" x="864.53" y="369.76" width="14.99" height="14.66"/><rect class="cls-11" x="842.35" y="369.76" width="14.98" height="14.66"/><rect class="cls-11" x="842.35" y="390.68" width="14.98" height="14.65"/><rect class="cls-11" x="864.53" y="390.68" width="14.99" height="14.65"/><rect class="cls-11" x="886.34" y="390.68" width="14.98" height="14.65"/><rect class="cls-11" x="907.98" y="390.68" width="14.95" height="14.65"/><rect class="cls-11" x="930.13" y="390.68" width="14.98" height="14.65"/><rect class="cls-11" x="951.97" y="390.68" width="14.98" height="14.65"/><path class="cls-6" d="M1033.49,275.83v-34.7H818.86v34.7h10.58V291H818.86v34.7h214.63V291h-12.2V275.83ZM857.33,311.47h-15V296.81h15Zm0-20.92h-15V275.89h15Zm0-20.53h-15V255.34h15Zm22.18,41.45h-15V296.81h15Zm0-20.92h-15V275.89h15Zm0-20.53h-15V255.34h15Zm21.82,41.45h-15V296.81h15Zm0-20.92h-15V275.89h15Zm0-20.53h-15V255.34h15Zm21.6,41.45H908V296.81h14.95Zm0-20.92H908V275.89h14.95Zm0-20.53H908V255.34h14.95Zm22.18,41.45h-15V296.81h15Zm0-20.92h-15V275.89h15Zm0-20.53h-15V255.34h15ZM967,311.47H952V296.81h15Zm0-20.92H952V275.89h15ZM967,270H952V255.34h15Zm32.45,41H981.16v-8.92h18.25ZM989.67,286c-8.54,0-14.38-6.92-14.38-15.46S981.13,255,989.67,255a15.46,15.46,0,0,1,0,30.92Z"/><rect class="cls-11" x="981.16" y="302.12" width="18.25" height="8.93"/><path class="cls-11" d="M1005.11,270.5A15.45,15.45,0,0,1,989.67,286c-8.54,0-14.38-6.92-14.38-15.46S981.13,255,989.67,255A15.45,15.45,0,0,1,1005.11,270.5Z"/><rect class="cls-11" x="842.35" y="255.34" width="14.98" height="14.68"/><rect class="cls-11" x="864.53" y="255.34" width="14.99" height="14.68"/><rect class="cls-11" x="886.34" y="255.34" width="14.98" height="14.68"/><rect class="cls-11" x="907.98" y="255.34" width="14.95" height="14.68"/><rect class="cls-11" x="930.13" y="255.34" width="14.98" height="14.68"/><rect class="cls-11" x="951.97" y="255.34" width="14.98" height="14.68"/><rect class="cls-11" x="951.97" y="275.89" width="14.98" height="14.66"/><rect class="cls-11" x="930.13" y="275.89" width="14.98" height="14.66"/><rect class="cls-11" x="907.98" y="275.89" width="14.95" height="14.66"/><rect class="cls-11" x="886.34" y="275.89" width="14.98" height="14.66"/><rect class="cls-11" x="864.53" y="275.89" width="14.99" height="14.66"/><rect class="cls-11" x="842.35" y="275.89" width="14.98" height="14.66"/><rect class="cls-11" x="842.35" y="296.81" width="14.98" height="14.65"/><rect class="cls-11" x="864.53" y="296.81" width="14.99" height="14.65"/><rect class="cls-11" x="886.34" y="296.81" width="14.98" height="14.65"/><rect class="cls-11" x="907.98" y="296.81" width="14.95" height="14.65"/><rect class="cls-11" x="930.13" y="296.81" width="14.98" height="14.65"/><rect class="cls-11" x="951.97" y="296.81" width="14.98" height="14.65"/><path class="cls-15" d="M353,391.89a7.81,7.81,0,1,1-9.65-5.37A7.81,7.81,0,0,1,353,391.89Z"/><path class="cls-15" d="M376.18,393.39l-28.45,8.12a5.67,5.67,0,0,1-7-3.89h0c-.86-3,1.18-10.69,4.19-11.55l29.84.27c3.29,0,5.07,4.13,2.64,6.35A3.19,3.19,0,0,1,376.18,393.39Z"/><path class="cls-6" d="M354.51,389.73h0a1.31,1.31,0,0,1-1.23-1.61l.7-2.95a1.31,1.31,0,0,1,1.33-1h0a1.31,1.31,0,0,1,1.23,1.62l-.7,2.94A1.3,1.3,0,0,1,354.51,389.73Z"/><path class="cls-6" d="M358.75,389.91h0a1.31,1.31,0,0,1-1.22-1.61l.69-2.95a1.32,1.32,0,0,1,1.34-1h0a1.31,1.31,0,0,1,1.22,1.61l-.69,2.95A1.32,1.32,0,0,1,358.75,389.91Z"/><path class="cls-8" d="M336.89,339.22l-.15-.08-41.39-24.4L283,328.16l43.43,23,2,8.48,1.44,6c.49,2,.9,4,1.36,6l5.35,23.88.31-.05,11.64-10.55-3-16.27c-.39-2-.75-4.12-1.17-6.13l-1.22-6.08-2.45-12.15A7.43,7.43,0,0,0,336.89,339.22Z"/><path class="cls-16" d="M255.57,404.29a7.81,7.81,0,1,1-4-10.31A7.82,7.82,0,0,1,255.57,404.29Z"/><path class="cls-15" d="M272.42,420.32l-27-12a5.67,5.67,0,0,1-2.88-7.48h0c1.27-2.86,7.76-7.44,10.62-6.17L275.85,414c2.51,2.13,1.24,6.41-2,6.55A3.09,3.09,0,0,1,272.42,420.32Z"/><path class="cls-6" d="M258.14,403.62h0a1.31,1.31,0,0,1,.1-2l2.42-1.81a1.31,1.31,0,0,1,1.67.08h0a1.31,1.31,0,0,1-.1,2l-2.42,1.81A1.31,1.31,0,0,1,258.14,403.62Z"/><path class="cls-6" d="M261.28,406.48h0a1.33,1.33,0,0,1,.09-2l2.43-1.81a1.31,1.31,0,0,1,1.67.08h0a1.31,1.31,0,0,1-.1,2L263,406.56A1.31,1.31,0,0,1,261.28,406.48Z"/><path class="cls-8" d="M301.18,303.74l-27.44-3c-1.71,1.93-3.77,7.92-4.38,10.61a16,16,0,0,0,12.06,19.12c2.11.48,12.52.64,17.41-4.13C306,319.36,301.18,303.74,301.18,303.74Z"/><path class="cls-8" d="M284.06,318.41H266.39l6.79,42-29.81,34.73,15.47,4.35,28.45-31.91a7.39,7.39,0,0,0,1.76-6Z"/><path class="cls-10" d="M356.24,300.54l-40.9-.71a4.87,4.87,0,0,1-4.26-2.68l-16-31.88,8.69-4.37,14.71,29.25,38,.67Z"/><polygon class="cls-17" points="297.84 235.67 296.6 261.48 284.64 260.91 286.37 235.98 286.86 228.89 297.84 235.67"/><path class="cls-18" d="M288.69,243.81s2.71,6.64,8.37,8.3l.41-8.65Z"/><path class="cls-17" d="M301.74,251c.48-.08,1.41-.34,1.87-.46,4.45-1.22,8.84-8.56,8.68-12.79-.21-5-.74-7.57-.44-11,.4-4.68-4.15-8.35-8.85-8.17l-9.52.38a6.5,6.5,0,0,0-6.23,6.74l.62,15.45C288.09,246.64,296.3,251.82,301.74,251Z"/><path class="cls-18" d="M282.08,254.38a6.6,6.6,0,0,1,4.48-1.08l5.3.61a15.06,15.06,0,0,1,6.88,2.6C293.27,258.1,286.65,257.55,282.08,254.38Z"/><path class="cls-10" d="M273.86,264.55c.23-4.16,3.92-9.76,8.46-10.32,7.67,1.08,14.56,1.5,17.15,2.12a15.19,15.19,0,0,1,6.45,14.25l-.68,47.77c-14.35,10.12-40.63,6.05-40.63,6.05C264.61,303.8,273.38,272.73,273.86,264.55Z"/><path class="cls-10" d="M327.48,300.27l-33.4.36a4.86,4.86,0,0,1-4.86-4.14l-5.5-36.77,9.62-1.44,4.87,32.58,29.17-.31Z"/><path class="cls-19" d="M298.11,256.1c-2.18-.52-6.07-.65-12.25-1.4,3.43,8,12.68,14.73,15.42,24.16C302.71,277.29,302.58,259.19,298.11,256.1Z"/><path class="cls-15" d="M297.73,257.58c-.4-.46-1.67-1.35-1.71-1.83-1-.12-.83.26-2.2.13,3.74,3.46,1.58,9.17,3.05,14.39a29.16,29.16,0,0,1,4.41,8.59c.79-.87,1.1-6.81.46-12.47A19,19,0,0,0,297.73,257.58Z"/><path class="cls-20" d="M298.17,258.47a3.27,3.27,0,0,1-3.11.46c-.61-.43-1.2-2.77-1.2-2.77l4.64-.69S298.62,257.88,298.17,258.47Z"/><path class="cls-8" d="M306.39,227.94c18.43-4,5.15-15.73,5.15-15.73s-.37,4.37-3.93,2.94c-6.84-2.74-21.7-4.45-25.78,4.46-3.18,6.95,2.74,22.15,3.86,26.12,1.84-1.16.29-19,7.85-18.3C297.66,227.84,302.35,228.82,306.39,227.94Z"/><path class="cls-21" d="M303.59,247.1c3.77-.16,1.35-6.38-.09-6.31S299.83,247.27,303.59,247.1Z"/><polygon class="cls-6" points="291.5 260.58 282.15 254.36 285.31 250.89 296.44 255.83 291.5 260.58"/><polygon class="cls-6" points="299.28 258.18 298.74 256.11 296.95 254.23 296.19 255.83 299.28 258.18"/><rect class="cls-6" x="921.97" y="178.78" width="14.28" height="13.99"/><path class="cls-15" d="M921.3,72.08c-1.32-1.92.48-5.12-.64-8.91-3.39-11.47.58-16.46.58-16.46-.07-4.21,3.47-7.9,8.75-9.85a25,25,0,0,1,8.39-1.46,23.24,23.24,0,0,1,12,3c3.36,2,5.8,4.9,5.53,8.09-.19,2.26-2.62,5.25-.15,9.06,6.1,9.42,3.46,14.85.21,16.54-3,1.55-6.41,1.68-8.17,2.68C938.78,79.89,926,78.88,921.3,72.08Z"/><path class="cls-18" d="M893.13,114a53.94,53.94,0,0,1-6.43-1.12,3,3,0,1,1,1.36-5.86c10.3,2.38,18.73,1.36,25.06-3,9.67-6.71,11.39-19.1,11.41-19.22a3,3,0,0,1,3.38-2.6,3,3,0,0,1,2.59,3.38c-.08.62-2.1,15.17-13.94,23.39C910.2,113.39,902.34,115.08,893.13,114Z"/><path class="cls-15" d="M923.11,89.42a8.74,8.74,0,0,0-1.66.16,29,29,0,0,0,1.33-5,4.8,4.8,0,0,1,4.76-4.15l.6,0a4.78,4.78,0,0,1,4.11,5.36,39,39,0,0,1-2.31,8.31A6.91,6.91,0,0,0,923.11,89.42Z"/><path class="cls-18" d="M928.78,86.88a3.33,3.33,0,0,1-.95-5.27,10.52,10.52,0,0,1,7.64-3.39l.78,0a8.35,8.35,0,0,1,6.68,2.94C941.66,85.09,933,88.48,928.78,86.88Z"/><path class="cls-18" d="M933.88,72.16l-.07,3.4L933.68,82l4.91.09.15-8.16.07-3.17A8.1,8.1,0,0,1,933.88,72.16Z"/><path class="cls-18" d="M933.88,73l-.07,3.4a8.48,8.48,0,0,0,5-2.31l0-2.54A8.1,8.1,0,0,1,933.88,73Z"/><path class="cls-18" d="M935.09,74.73h0a14.25,14.25,0,0,0,14.1-14.38l-.06-5.6a14.23,14.23,0,0,0-14.38-14.1h0A14.22,14.22,0,0,0,920.66,55l.05,5.6a14.24,14.24,0,0,0,14.38,14.09Z"/><path class="cls-22" d="M919.81,121c-1.65,7.28,7.36,14.52,14.63,16.18a13.51,13.51,0,1,0,6-26.35C933.17,109.21,921.47,113.77,919.81,121Z"/><path class="cls-21" d="M934.16,67.32a3.8,3.8,0,0,1-7.48.08Z"/><path class="cls-15" d="M920.76,90.18c-.93,2.55,1.64,5.65,4.33,5.95s6-3.22,6.27-5.92-3.72-8.6-5.24-6.35S921.55,88,920.76,90.18Z"/><path class="cls-15" d="M942.93,81.13a8.27,8.27,0,0,1,2,5s-4.38,21.21,4.87,32.42c0,0-16.7,10-30.13,3.25,0-9.61,5.88-16.24,5-31.81a11.12,11.12,0,0,1,3.21-8.41C928,86.56,938.14,80.6,942.93,81.13Z"/><path class="cls-10" d="M924.65,181.58a4.54,4.54,0,0,0-4.24,2.29c-1.7,3.23-1.95,6.89-5.19,12.32-2.2,3.7-3.85,4.24-5.49,7.28-1.4,2.6,1,4,3.67,3.43,1.05-.2,7.55-.73,8.54-5.66.73-3.61,6.57-4.79,6.78-6.08.12-.8-.43-3.33-.12-6.49C929,184.79,926.8,181.86,924.65,181.58Z"/><path class="cls-18" d="M919.13,198.23c1.81-2.66,4.93-11.29,4.52-13.39-.48-2.46-5.26-3.5-5.93-1.47-1.14,3.47-.78,10-4.91,16.1C912.86,201.29,917,201.34,919.13,198.23Z"/><path class="cls-10" d="M850.33,148a4.51,4.51,0,0,0,.7-4.75c-1.57-3.31-4.35-5.69-6.77-11.53-1.64-4-1.1-5.62-2.55-8.75-1.25-2.69-3.77-1.59-5,.88-.46,1-3.92,6.49-.56,10.23,2.45,2.74-.09,8.13.82,9.07.56.58,2.92,1.64,5.27,3.79C845.16,149.53,848.82,149.52,850.33,148Z"/><path class="cls-18" d="M840.28,133.59c1.06,3,6.11,10.71,8,11.63,2.26,1.09,5.95-2.13,4.72-3.87-2.09-3-7.51-6.58-10-13.57C841.59,126.74,839.05,130.05,840.28,133.59Z"/><path class="cls-22" d="M905.76,140.52l.24-.11,31.9-14.65a6,6,0,1,1,5,11l-.06,0L915.41,149l9.72,33.33-8.35,2.76-13.91-37.52A5.59,5.59,0,0,1,905.76,140.52Z"/><path class="cls-18" d="M935.07,122.25a48.54,48.54,0,0,1-5-.27,3,3,0,1,1,.61-6c5.57.57,12.73.38,15.25-3.75,4-6.52-3.53-20.87-6.48-25.38a3,3,0,0,1,5-3.29c1.37,2.1,13.23,20.89,6.57,31.81C948.32,120,942.94,122.25,935.07,122.25Z"/><path class="cls-15" d="M950.75,56.3s-10.1,3.61-16.4-.78-9.19-11.15-6.43-15.11,10.09-3.6,16.39.78S950.75,56.3,950.75,56.3Z"/><path class="cls-22" d="M938.19,124.34s-5.59.15-14,.49l-14.3.69-16.38,1-2.09.12-.52,0h-.13l-.58,0-.26,0-1,.15-2,.32-.13,0-.51.09h-.06l-.25.07-.5.12-1,.25-7.84,1.94c-2.54.64-5,1.21-7.32,1.84l-6.55,1.72c-4.06,1-7.42,2-9.78,2.66L849.24,137l1.68,7.57,3.8-.62c2.41-.42,5.87-1,10-1.75l6.65-1.22c2.37-.42,4.84-.95,7.42-1.45l7.91-1.58,1-.2.51-.1.25,0h.06c.11,0-.81.14-.4.07h.16l2.06-.24,1-.13.26,0h0l-.42,0h.2l.52,0,2.09-.08,16.4-.64,14.3-.72c8.36-.48,13.94-.89,13.94-.89Z"/><path class="cls-23" d="M936.35,127.9a1.8,1.8,0,0,0-1.81-1.81H868.93c-1.38,0-2.51.81-2.51,1.81s1.13,1.81,2.51,1.81h65.61a1.8,1.8,0,0,0,1.81-1.81Z"/><path class="cls-6" d="M938.93,127.9a1.89,1.89,0,0,1-1.95,1.81H912.06a1.82,1.82,0,1,1,0-3.62H937A1.89,1.89,0,0,1,938.93,127.9Z"/><rect class="cls-6" x="866.53" y="89.46" width="48.99" height="38.43" rx="2.67"/><rect class="cls-15" x="864.49" y="89.46" width="49" height="38.43" rx="2.67"/><path class="cls-6" d="M896.19,108.67h0a2.81,2.81,0,0,0-2.82-2.81H884.6a2.81,2.81,0,0,0-2.81,2.81h0a2.81,2.81,0,0,0,2.81,2.82h8.77A2.82,2.82,0,0,0,896.19,108.67Z"/><path class="cls-15" d="M947.94,88.9a6.9,6.9,0,0,0-6.78,4.58A55.14,55.14,0,0,0,938,87.82a4.78,4.78,0,0,1,8-5.22,69.15,69.15,0,0,1,3.7,6.5A7.76,7.76,0,0,0,947.94,88.9Z"/><path class="cls-18" d="M917,116.61a7.26,7.26,0,0,0-.32,5l10.14,4.49a7.27,7.27,0,1,0-9.82-9.48Z"/><path class="cls-10" d="M178.53,51c1.72,3.64,14.44,27.63,51.12,27l-.11-6.69c-34.19.58-44.62-22.39-45.06-23.39l-6.14,2.65Z"/><path class="cls-17" d="M237,69.12a6.49,6.49,0,0,1,2.69,3.61l-5.45,8.36a6.47,6.47,0,0,1-4.38-1,6.54,6.54,0,1,1,7.14-11Z"/><path class="cls-17" d="M168.81,148.17c.55-1.45,13.38-35.76,13.38-56.77h-7.62c0,19.62-12.76,53.74-12.89,54.09Z"/><path class="cls-17" d="M206.81,125.57l14.28-20.42A3.81,3.81,0,0,0,220,99.73L200.31,87.49l-4,6.47,16.26,10.12-12,17.12Z"/><path class="cls-15" d="M165.28,14.3a100.59,100.59,0,0,1,7.3-8,5.23,5.23,0,0,1,7.6.37c20.73-3.18,24.63,26.43,15.19,33.81-7.66,6-14,1.86-14,1.86a26.72,26.72,0,0,1-10.93,4.23c-4.09.63-9-2.06-9-2.06s-5.78,4.14-10.22-2,2.13-12.6,5.61-12.66c0,0-4.17-5,1.55-8.36C160.56,20.17,165.28,14.3,165.28,14.3Z"/><path class="cls-17" d="M190.92,51.09a3,3,0,0,0,.85-4.76,9.5,9.5,0,0,0-6.89-3.07l-.71,0a7.55,7.55,0,0,0-6,2.65C179.28,49.47,187.14,52.54,190.92,51.09Z"/><path class="cls-17" d="M186.72,37.79l.06,3.08.12,5.77-4.44.08-.13-7.38-.06-2.86A7.29,7.29,0,0,0,186.72,37.79Z"/><g class="cls-24"><path class="cls-18" d="M186.72,37.79l.06,3.08a7.73,7.73,0,0,1-4.47-2.1l0-2.29A7.29,7.29,0,0,0,186.72,37.79Z"/></g><path class="cls-17" d="M189.2,37.79h0a12.87,12.87,0,0,1-17.28-5.71l-2.27-4.52a12.86,12.86,0,0,1,5.71-17.27h0A12.84,12.84,0,0,1,192.63,16l2.28,4.52a12.86,12.86,0,0,1-5.71,17.27Z"/><path class="cls-15" d="M175,24.47c9.23,1.5,10.25-8.45,9.72-12.55-1.1-8.56-12.28-6.91-16.2-2.65A22.06,22.06,0,0,0,163.64,28c1.86,8.88,10.92,14.4,10.92,14.4,10-7.3-.33-14.3-.33-14.3Z"/><path class="cls-22" d="M195,82a12.2,12.2,0,1,1-14.61-9.2A12.19,12.19,0,0,1,195,82Z"/><path class="cls-21" d="M188.18,30.78a3.44,3.44,0,0,0,6-3Z"/><path class="cls-10" d="M204,88.16c-16.13,14-36.13,20.85-36.13,20.85,3.91-8.38-5.12-18.62,4.14-29.34,3.82-4.43,23.3,2,23.3,2Z"/><path class="cls-10" d="M197.4,53.14c.84,2.3-1.49,4.62-3.92,4.88a4.43,4.43,0,0,1-4.89-3.92c-.27-2.44,3.36-7.77,4.73-5.74S196.69,51.16,197.4,53.14Z"/><path class="cls-10" d="M178.13,45.89a7.3,7.3,0,0,0-1.8,4.55s1.09,20.06-4.41,29.29c-2.36,4,23.45,3.87,23.45,3.87l-.69-29.67a10.15,10.15,0,0,0-2.91-7.6C191.66,50.8,180.42,43.36,178.13,45.89Z"/><path class="cls-10" d="M182.27,53c4.14.4,32.21,1.8,51.1-31.15l-6-3.44c-17.6,30.71-43.55,27.82-44.67,27.68l-.9,6.86Z"/><path class="cls-17" d="M229.53,11.19a6.49,6.49,0,0,1,4.48-.46l4.39,9a6.48,6.48,0,0,1-3.11,3.26,6.54,6.54,0,1,1-5.76-11.75Z"/><path class="cls-9" d="M206.38,125.93a5,5,0,1,1-5-5A5,5,0,0,1,206.38,125.93Z"/><path class="cls-9" d="M220.34,130.86l-18.83.06a3.61,3.61,0,0,1-3.61-3.59h0c0-2,2.57-6.35,4.56-6.35l18.22,5.32a2.36,2.36,0,0,1,.52,4.34A2,2,0,0,1,220.34,130.86Z"/><path class="cls-9" d="M168.34,152.4a5,5,0,1,1-.89-7A5,5,0,0,1,168.34,152.4Z"/><path class="cls-9" d="M176.32,164.86l-14.88-11.52a3.59,3.59,0,0,1-.65-5.05h0c1.22-1.57,5.93-3.42,7.5-2.21l11.11,15.4a2.36,2.36,0,0,1-2.26,3.74A1.89,1.89,0,0,1,176.32,164.86Z"/><path class="cls-8" d="M187.21,81.14a29.48,29.48,0,0,0,6.27-.66l-.23-1.07a28.87,28.87,0,0,1-18.61-2.26l-.53.95A28.6,28.6,0,0,0,187.21,81.14Z"/><rect class="cls-12" x="149.74" y="146.68" width="1.55" height="12.27"/><rect class="cls-12" x="157.48" y="153.21" width="1.55" height="16.78"/><rect class="cls-12" x="157.48" y="132.57" width="1.55" height="9.73"/><path class="cls-11" d="M727.26,393.53a5.65,5.65,0,0,1-4.58-2.32l-19.61-26.85a5.65,5.65,0,0,1,.2-6.94l25.63-31.13a5.67,5.67,0,0,1,8.75,7.2l-22.84,27.74,17,23.29a5.66,5.66,0,0,1-4.57,9Z"/><path class="cls-11" d="M764.9,393.48a5.67,5.67,0,0,1-4.57-9l17.1-23.36-22.75-27.65a5.67,5.67,0,1,1,8.75-7.2L789,357.31a5.66,5.66,0,0,1,.2,6.95l-19.69,26.9A5.65,5.65,0,0,1,764.9,393.48Z"/><path class="cls-8" d="M763,291.59a16.35,16.35,0,1,1-16.35-16.35A16.35,16.35,0,0,1,763,291.59Z"/><polygon class="cls-17" points="752.65 311.67 752.61 327.22 752.58 337.38 740.66 337.35 741.26 312.5 741.43 305.43 752.65 311.67"/><path class="cls-11" d="M728.94,336c0-4.85,4.23-9.54,8.57-11.8,6.5-3.38,16.52-1,19.72.87,5.44,3.24,8.68,9.81,8.29,16.57l.38,36.26H727.41S728.85,347.06,728.94,336Z"/><path class="cls-17" d="M755.19,324.18c-4.74-2-11.43-2.65-16.83-.33l4,4a6.49,6.49,0,0,0,9.17,0Z"/><path class="cls-17" d="M749.76,282.24h-6.21c-5.48,0-10.6,4.48-9.92,9.92.5,4,0,6.93,0,12.8,0,4.93,5.77,14.49,10.7,14.49H749c4.93,0,10.7-9.56,10.7-14.49,0-5.87-.5-8.84,0-12.8C760.36,286.72,755.24,282.24,749.76,282.24Z"/><path class="cls-21" d="M741.63,310.59a5.11,5.11,0,0,0,10,0Z"/><path class="cls-25" d="M752.84,412.6H740.47a14.09,14.09,0,0,1-13.81-16.85l.75-17.82H765.9l.75,17.82A14.09,14.09,0,0,1,752.84,412.6Z"/><path class="cls-15" d="M690.32,392.71l52.57-5,1.5,15.74-52.57,5a7.82,7.82,0,0,1-8.53-7.05l0-.16A7.83,7.83,0,0,1,690.32,392.71Z"/><path class="cls-15" d="M795.26,392.71l-52.57-5-1.5,15.74,52.57,5a7.82,7.82,0,0,0,8.53-7.05l0-.16A7.83,7.83,0,0,0,795.26,392.71Z"/><rect class="cls-6" x="722.25" y="368.46" width="48.81" height="34.94" rx="3.83"/><rect class="cls-4" x="722.25" y="370.07" width="48.81" height="34.94" rx="3.83"/><rect class="cls-6" x="738.14" y="384.63" width="17.03" height="5.82" rx="2.88"/><path class="cls-6" d="M725.94,419.45l15.31-.92,0,.29a1.43,1.43,0,1,0,2.83.46l.16-.93,1.72-.1-.07.44a1.43,1.43,0,1,0,2.83.47l.18-1.08,9.64-.58a3,3,0,0,0,.59-.31,8,8,0,0,0,1.13-.32,8.53,8.53,0,1,0-5.81-16.05l-.1,0h0l-30.41,11a3.49,3.49,0,0,0-1.27.86C720.1,415.33,722.35,419.67,725.94,419.45Z"/><path class="cls-8" d="M749.34,413.84A8.53,8.53,0,1,1,760.27,419,8.54,8.54,0,0,1,749.34,413.84Z"/><path class="cls-8" d="M723.91,414l30.41-11a6.2,6.2,0,0,1,7.93,3.71h0c1.16,3.22-.48,11.75-3.7,12.91l-32.56,2c-3.59.22-5.83-4.12-3.35-6.72A3.41,3.41,0,0,1,723.91,414Z"/><path class="cls-6" d="M747.82,416.31h0a1.43,1.43,0,0,1,1.45,1.67l-.53,3.27a1.44,1.44,0,0,1-1.38,1.2h0a1.44,1.44,0,0,1-1.46-1.67l.54-3.26A1.44,1.44,0,0,1,747.82,416.31Z"/><path class="cls-6" d="M743.18,416.44h0a1.44,1.44,0,0,1,1.46,1.67l-.54,3.26a1.42,1.42,0,0,1-1.38,1.2h0a1.44,1.44,0,0,1-1.46-1.67l.54-3.26A1.42,1.42,0,0,1,743.18,416.44Z"/><path class="cls-17" d="M792.06,396l-35.52,9.56a6.41,6.41,0,0,0-4.52,7.84l0,.13a6.4,6.4,0,0,0,7.84,4.51l35.51-9.55a6.39,6.39,0,0,0,4.52-7.84l0-.13A6.41,6.41,0,0,0,792.06,396Z"/><path class="cls-6" d="M759.64,419.45l-15.32-.92,0,.29a1.44,1.44,0,0,1-1.46,1.67,1.46,1.46,0,0,1-1.38-1.21l-.15-.93-1.72-.1.07.44a1.43,1.43,0,0,1-1.46,1.67,1.45,1.45,0,0,1-1.38-1.2l-.17-1.08-9.64-.58a3,3,0,0,1-.59-.31,8,8,0,0,1-1.13-.32,8.53,8.53,0,1,1,5.81-16.05l.09,0h0l30.41,11a3.33,3.33,0,0,1,1.27.86C765.48,415.33,763.23,419.67,759.64,419.45Z"/><path class="cls-8" d="M736.24,413.84A8.54,8.54,0,1,0,725.31,419,8.53,8.53,0,0,0,736.24,413.84Z"/><path class="cls-8" d="M761.67,414l-30.41-11a6.19,6.19,0,0,0-7.93,3.71h0c-1.16,3.22.48,11.75,3.7,12.91l32.56,2c3.59.22,5.83-4.12,3.35-6.72A3.49,3.49,0,0,0,761.67,414Z"/><path class="cls-6" d="M737.76,416.31h0A1.45,1.45,0,0,0,736.3,418l.54,3.27a1.44,1.44,0,0,0,1.38,1.2h0a1.45,1.45,0,0,0,1.46-1.67l-.54-3.26A1.44,1.44,0,0,0,737.76,416.31Z"/><path class="cls-6" d="M742.4,416.44h0a1.44,1.44,0,0,0-1.46,1.67l.54,3.26a1.42,1.42,0,0,0,1.38,1.2h0a1.43,1.43,0,0,0,1.45-1.67l-.53-3.26A1.42,1.42,0,0,0,742.4,416.44Z"/><path class="cls-17" d="M693.52,396,729,405.58a6.39,6.39,0,0,1,4.52,7.84l0,.13a6.4,6.4,0,0,1-7.85,4.51l-35.51-9.55a6.41,6.41,0,0,1-4.52-7.84l0-.13A6.41,6.41,0,0,1,693.52,396Z"/><path class="cls-8" d="M746.34,275.24c-10.88,0-20.31,11.47-20.31,11.47,13.56,8.29,23.1,2.21,26.38-.48,1-.78,2.9-2.42,2.9-4.58Z"/><path class="cls-6" d="M301,291.36a2,2,0,0,0,2,1.89h26a1.9,1.9,0,1,0,0-3.78h-26A2,2,0,0,0,301,291.36Z"/><path class="cls-12" d="M376.58,254v34.52a2.79,2.79,0,0,1-2.79,2.79H328.25a2.79,2.79,0,0,1-2.79-2.79V254a2.78,2.78,0,0,1,2.79-2.78h45.54A2.78,2.78,0,0,1,376.58,254Z"/><path class="cls-15" d="M330.37,251.26h45.55A2.79,2.79,0,0,1,378.7,254v34.52a2.79,2.79,0,0,1-2.79,2.79H330.37a2.78,2.78,0,0,1-2.78-2.78V254A2.78,2.78,0,0,1,330.37,251.26Z"/><path class="cls-6" d="M345.63,271.3h0a2.94,2.94,0,0,1,2.94-2.93h9.15a2.93,2.93,0,0,1,2.93,2.93h0a2.94,2.94,0,0,1-2.93,2.94h-9.15A2.94,2.94,0,0,1,345.63,271.3Z"/><path class="cls-17" d="M321.83,295.4a8.3,8.3,0,0,1,1.06-5.65l12.56-2.11a8.35,8.35,0,1,1-13.62,7.76Z"/><path class="cls-17" d="M348.33,293.08a8.31,8.31,0,0,1,1.53-5.54l12.69-1.06a8.26,8.26,0,0,1,2.42,5.21,8.35,8.35,0,1,1-16.64,1.39Z"/></g></g></g></svg>