<svg xmlns="http://www.w3.org/2000/svg" viewBox="0 0 1187.57 455.81"><defs><style>.cls-1{isolation:isolate;}.cls-2{fill:#ccc;}.cls-15,.cls-3{fill:#104d7b;}.cls-3{fill-rule:evenodd;}.cls-4{fill:#70b1c7;}.cls-5{fill:#e5e9ff;}.cls-6{fill:#fff;}.cls-7{fill:#e39308;}.cls-8{fill:#eab023;}.cls-9{fill:#eb3e75;}.cls-10{fill:#dc1b5e;}.cls-11{fill:#92ba3b;}.cls-12{fill:#75ccf2;}.cls-13{fill:#cbcacc;}.cls-14{fill:#bababa;}.cls-16{fill:#2143af;}.cls-17{fill:#e7b189;}.cls-18{fill:#f99ab6;}.cls-19{fill:#f7b75d;}.cls-20{fill:#b8b9f1;}.cls-21{fill:#fffeff;}.cls-22{fill:#546ad0;}.cls-23{fill:#e5e8ff;}.cls-24{fill:#121f55;}.cls-25{fill:#566cd3;}.cls-26{fill:#8edef2;}.cls-27{fill:#27cdf2;}.cls-28{mix-blend-mode:multiply;}.cls-29{fill:#b9b8f1;}</style></defs><title>ProdInfoRep-Hero</title><g class="cls-1"><g id="Layer_2" data-name="Layer 2"><g id="Layer_2-2" data-name="Layer 2"><rect class="cls-2" x="509.52" y="335.05" width="140.11" height="87.95"/><path class="cls-3" d="M335.73,32H823.87a25,25,0,0,1,25,25V322.61a25,25,0,0,1-25,25H335.73a25.05,25.05,0,0,1-25-25V57A25,25,0,0,1,335.73,32Z"/><rect class="cls-4" x="327.33" y="46.56" width="504.94" height="256.42"/><path class="cls-3" d="M417.62,410.45h312.5a12.28,12.28,0,0,1,12.24,12.25h0a12.28,12.28,0,0,1-12.24,12.24H417.62a12.28,12.28,0,0,1-12.24-12.24h0A12.28,12.28,0,0,1,417.62,410.45Z"/><rect class="cls-5" x="641.19" y="283.83" width="165.49" height="5.54" transform="translate(1447.86 573.21) rotate(180)"/><rect class="cls-5" x="641.19" y="269.34" width="165.49" height="5.54" transform="translate(1447.86 544.22) rotate(180)"/><rect class="cls-5" x="641.19" y="254.37" width="165.49" height="5.54" transform="translate(1447.86 514.29) rotate(180)"/><rect class="cls-5" x="641.19" y="239.41" width="165.49" height="5.54" transform="translate(1447.86 484.35) rotate(180)"/><path class="cls-6" d="M775.05,148.58A49.6,49.6,0,1,1,725.45,99,49.6,49.6,0,0,1,775.05,148.58Z"/><rect class="cls-7" x="776.72" y="65.56" width="35.2" height="27.08" transform="translate(171.52 578.43) rotate(-44.41)"/><path class="cls-8" d="M870.8,22.82A13.31,13.31,0,0,0,871,4h0a13.32,13.32,0,0,0-18.83-.2L795.55,59.27a13.3,13.3,0,0,0-.19,18.82h0a13.3,13.3,0,0,0,18.82.19Z"/><path class="cls-9" d="M642.89,145.42h24.2c2.13-30.31,27.67-52.36,57.65-53.7a49.43,49.43,0,0,1,18.11,2.62l7-24.2a81.85,81.85,0,0,0-107,75.28Z"/><path class="cls-10" d="M666.93,149.74H642.86a81.57,81.57,0,0,0,23.89,56.17l16.31-16.76C673.19,178.47,667,164.27,666.93,149.74Z"/><path class="cls-9" d="M724.74,207.34c-14.66.66-28.3-5.38-38.65-15.11l-16.26,16.7a81.93,81.93,0,0,0,136.84-59.19H782.55C782.43,182,756,205.94,724.74,207.34Z"/><path class="cls-10" d="M746.9,95.89c19.42,8.42,33.8,28.33,35.47,49.53h24.29A81.94,81.94,0,0,0,754,71.56Z"/><rect class="cls-6" x="354.3" y="110.17" width="121.23" height="35.71"/><rect class="cls-6" x="354.3" y="157.83" width="121.23" height="35.71"/><rect class="cls-6" x="354.3" y="62.51" width="121.23" height="35.71"/><circle class="cls-11" cx="372.15" cy="128.03" r="11.13"/><circle class="cls-11" cx="372.15" cy="175.69" r="11.13"/><circle class="cls-12" cx="372.15" cy="80.36" r="11.13"/><rect class="cls-13" x="389.56" y="134.91" width="20.96" height="2.72"/><rect class="cls-13" x="417.94" y="134.91" width="46.1" height="2.72" transform="translate(881.98 272.55) rotate(180)"/><rect class="cls-13" x="389.56" y="126.67" width="53.53" height="2.72"/><rect class="cls-13" x="389.56" y="182.57" width="42.4" height="2.72"/><rect class="cls-13" x="389.56" y="174.33" width="74.15" height="2.72"/><rect class="cls-14" x="389.56" y="118.42" width="33.33" height="2.72"/><rect class="cls-14" x="430.31" y="118.42" width="28.78" height="2.72" transform="translate(889.4 239.56) rotate(180)"/><rect class="cls-14" x="389.56" y="166.08" width="20.13" height="2.72"/><rect class="cls-14" x="417.11" y="166.08" width="31.26" height="2.72" transform="translate(865.48 334.88) rotate(180)"/><rect class="cls-14" x="389.56" y="70.76" width="42.4" height="2.72"/><rect class="cls-14" x="439.38" y="70.76" width="28.78" height="2.72" transform="translate(907.54 144.23) rotate(180)"/><rect class="cls-13" x="389.56" y="87.25" width="32.5" height="2.72"/><rect class="cls-13" x="429.48" y="87.25" width="28.78" height="2.72" transform="translate(887.75 177.22) rotate(180)"/><rect class="cls-13" x="389.56" y="79" width="60.13" height="2.72"/><rect class="cls-6" x="354.3" y="252.59" width="121.23" height="35.71"/><rect class="cls-6" x="354.3" y="204.92" width="121.23" height="35.71"/><circle class="cls-11" cx="372.15" cy="270.44" r="11.13"/><circle class="cls-12" cx="372.15" cy="222.78" r="11.13"/><rect class="cls-13" x="389.56" y="277.33" width="20.96" height="2.72"/><rect class="cls-13" x="417.94" y="277.33" width="46.1" height="2.72" transform="translate(881.98 557.37) rotate(180)"/><rect class="cls-13" x="389.56" y="269.08" width="53.53" height="2.72"/><rect class="cls-14" x="389.56" y="260.83" width="33.33" height="2.72"/><rect class="cls-14" x="430.31" y="260.83" width="28.78" height="2.72" transform="translate(889.4 524.38) rotate(180)"/><rect class="cls-14" x="389.56" y="213.17" width="42.4" height="2.72"/><rect class="cls-14" x="439.38" y="213.17" width="28.78" height="2.72" transform="translate(907.54 429.06) rotate(180)"/><rect class="cls-13" x="389.56" y="229.66" width="32.5" height="2.72"/><rect class="cls-13" x="429.48" y="229.66" width="28.78" height="2.72" transform="translate(887.75 462.05) rotate(180)"/><rect class="cls-13" x="389.56" y="221.42" width="60.13" height="2.72"/><rect class="cls-6" x="491.12" y="252.59" width="121.23" height="35.71"/><rect class="cls-6" x="491.12" y="204.92" width="121.23" height="35.71"/><circle class="cls-11" cx="508.98" cy="270.44" r="11.13"/><circle class="cls-12" cx="508.98" cy="222.78" r="11.13"/><rect class="cls-13" x="526.38" y="277.33" width="20.96" height="2.72"/><rect class="cls-13" x="554.76" y="277.33" width="46.1" height="2.72" transform="translate(1155.63 557.37) rotate(180)"/><rect class="cls-13" x="526.38" y="269.08" width="53.53" height="2.72"/><rect class="cls-14" x="526.38" y="260.83" width="33.33" height="2.72"/><rect class="cls-14" x="567.13" y="260.83" width="28.78" height="2.72" transform="translate(1163.05 524.38) rotate(180)"/><rect class="cls-14" x="526.38" y="213.17" width="42.4" height="2.72"/><rect class="cls-14" x="576.21" y="213.17" width="28.78" height="2.72" transform="translate(1181.2 429.06) rotate(180)"/><rect class="cls-13" x="526.38" y="229.66" width="32.5" height="2.72"/><rect class="cls-13" x="566.31" y="229.66" width="28.78" height="2.72" transform="translate(1161.4 462.05) rotate(180)"/><rect class="cls-13" x="526.38" y="221.42" width="60.13" height="2.72"/><rect class="cls-6" x="491.12" y="110.17" width="121.23" height="35.71"/><rect class="cls-6" x="491.12" y="157.83" width="121.23" height="35.71"/><rect class="cls-6" x="491.12" y="62.51" width="121.23" height="35.71"/><circle class="cls-11" cx="508.98" cy="128.03" r="11.13"/><circle class="cls-11" cx="508.98" cy="175.69" r="11.13"/><circle class="cls-12" cx="508.98" cy="80.36" r="11.13"/><rect class="cls-13" x="526.38" y="134.91" width="20.96" height="2.72"/><rect class="cls-13" x="554.76" y="134.91" width="46.1" height="2.72" transform="translate(1155.63 272.55) rotate(180)"/><rect class="cls-13" x="526.38" y="126.67" width="53.53" height="2.72"/><rect class="cls-13" x="526.38" y="182.57" width="42.4" height="2.72"/><rect class="cls-13" x="526.38" y="174.33" width="74.15" height="2.72"/><rect class="cls-14" x="526.38" y="118.42" width="33.33" height="2.72"/><rect class="cls-14" x="567.13" y="118.42" width="28.78" height="2.72" transform="translate(1163.05 239.56) rotate(180)"/><rect class="cls-14" x="526.38" y="166.08" width="20.13" height="2.72"/><rect class="cls-14" x="553.94" y="166.08" width="31.26" height="2.72" transform="translate(1139.14 334.88) rotate(180)"/><rect class="cls-14" x="526.38" y="70.76" width="42.4" height="2.72"/><rect class="cls-14" x="576.21" y="70.76" width="28.78" height="2.72" transform="translate(1181.2 144.23) rotate(180)"/><rect class="cls-13" x="526.38" y="87.25" width="32.5" height="2.72"/><rect class="cls-13" x="566.31" y="87.25" width="28.78" height="2.72" transform="translate(1161.4 177.22) rotate(180)"/><rect class="cls-13" x="526.38" y="79" width="60.13" height="2.72"/><rect class="cls-2" x="244.34" y="434.94" width="696.87" height="20.87" rx="10.33"/><path class="cls-2" d="M934.37,434.79h241.25c6.6,0,12,4.63,12,10.33v.21c0,5.7-5.35,10.33-12,10.33H934.37c-6.6,0-12-4.63-12-10.33v-.21C922.42,439.42,927.77,434.79,934.37,434.79Z"/><path class="cls-6" d="M288.85,78.75v7c0,5.84,9.74,10.58,21.77,10.58s21.76-4.74,21.76-10.58v-7Z"/><path class="cls-15" d="M310.62,98.35c-13.54,0-23.74-5.39-23.74-12.55v-9h47.47v9C334.35,93,324.15,98.35,310.62,98.35ZM290.83,85.8c0,4.07,8.46,8.61,19.79,8.61s19.78-4.54,19.78-8.61V80.72H290.83Z"/><path class="cls-6" d="M288.85,70.2v7.06c0,5.84,9.74,10.58,21.77,10.58s21.76-4.74,21.76-10.58V70.2Z"/><path class="cls-15" d="M310.62,89.81c-13.54,0-23.74-5.4-23.74-12.55v-9h47.47v9C334.35,84.41,324.15,89.81,310.62,89.81ZM290.83,77.26c0,4.06,8.46,8.6,19.79,8.6s19.78-4.54,19.78-8.6V72.18H290.83Z"/><path class="cls-6" d="M288.85,61.66v7c0,5.84,9.74,10.58,21.77,10.58s21.76-4.74,21.76-10.58v-7Z"/><path class="cls-15" d="M310.62,81.27c-13.54,0-23.74-5.4-23.74-12.55v-9h47.47v9C334.35,75.87,324.15,81.27,310.62,81.27ZM290.83,68.72c0,4.06,8.46,8.6,19.79,8.6s19.78-4.54,19.78-8.6V63.63H290.83Z"/><path class="cls-6" d="M288.85,53.12v7.05c0,5.84,9.74,10.58,21.77,10.58S332.38,66,332.38,60.17V53.12Z"/><path class="cls-15" d="M310.62,72.72c-13.54,0-23.74-5.39-23.74-12.55v-9h47.47v9C334.35,67.33,324.15,72.72,310.62,72.72ZM290.83,60.17c0,4.06,8.46,8.6,19.79,8.6s19.78-4.54,19.78-8.6V55.09H290.83Z"/><path class="cls-6" d="M288.85,42.81v8.81c0,5.84,9.74,10.58,21.77,10.58s21.76-4.74,21.76-10.58V42.81Z"/><path class="cls-15" d="M310.62,64.18c-13.54,0-23.74-5.4-23.74-12.56V40.83h47.47V51.62C334.35,58.78,324.15,64.18,310.62,64.18ZM290.83,51.62c0,4.07,8.46,8.61,19.79,8.61s19.78-4.54,19.78-8.61V44.78H290.83Z"/><path class="cls-6" d="M332.38,42.81c0,5.84-9.74,10.58-21.76,10.58s-21.77-4.74-21.77-10.58,9.74-10.58,21.77-10.58S332.38,37,332.38,42.81Z"/><path class="cls-15" d="M310.62,55.36c-13.54,0-23.74-5.4-23.74-12.55s10.2-12.56,23.74-12.56,23.73,5.4,23.73,12.56S324.15,55.36,310.62,55.36Zm0-21.16c-11.84,0-19.79,4.45-19.79,8.61s7.95,8.6,19.79,8.6S330.4,47,330.4,42.81,321.94,34.2,310.62,34.2Z"/><path class="cls-6" d="M763.56,416.71v9.36c0,7.75,12.92,14,28.87,14s28.88-6.29,28.88-14v-9.36Z"/><path class="cls-15" d="M792.43,442.72c-17.95,0-31.5-7.15-31.5-16.65v-12h63v12C823.92,435.57,810.39,442.72,792.43,442.72Zm-26.25-16.65c0,5.39,11.22,11.41,26.25,11.41s26.25-6,26.25-11.41v-6.74h-52.5Z"/><path class="cls-6" d="M763.56,405.37v9.36c0,7.75,12.92,14,28.87,14s28.88-6.29,28.88-14v-9.36Z"/><path class="cls-15" d="M792.43,431.39c-17.95,0-31.5-7.16-31.5-16.66v-12h63v12C823.92,424.23,810.39,431.39,792.43,431.39Zm-26.25-16.66c0,5.39,11.22,11.42,26.25,11.42s26.25-6,26.25-11.42V408h-52.5Z"/><path class="cls-6" d="M763.56,394v9.37c0,7.74,12.92,14,28.87,14s28.88-6.29,28.88-14V394Z"/><path class="cls-15" d="M792.43,420.05c-17.95,0-31.5-7.16-31.5-16.65v-12h63v12C823.92,412.89,810.39,420.05,792.43,420.05ZM766.18,403.4c0,5.38,11.22,11.41,26.25,11.41s26.25-6,26.25-11.41v-6.75h-52.5Z"/><path class="cls-6" d="M763.56,382.7v9.36c0,7.74,12.92,14,28.87,14s28.88-6.29,28.88-14V382.7Z"/><path class="cls-15" d="M792.43,408.71c-17.95,0-31.5-7.16-31.5-16.65v-12h63v12C823.92,401.55,810.39,408.71,792.43,408.71Zm-26.25-16.65c0,5.38,11.22,11.41,26.25,11.41s26.25-6,26.25-11.41v-6.74h-52.5Z"/><path class="cls-6" d="M763.56,369v11.7c0,7.75,12.92,14,28.87,14s28.88-6.29,28.88-14V369Z"/><path class="cls-15" d="M792.43,397.38c-17.95,0-31.5-7.17-31.5-16.66V366.4h63v14.32C823.92,390.21,810.39,397.38,792.43,397.38Zm-26.25-16.66c0,5.39,11.22,11.41,26.25,11.41s26.25-6,26.25-11.41v-9.08h-52.5Z"/><path class="cls-6" d="M821.31,369c0,7.75-12.93,14-28.88,14s-28.87-6.29-28.87-14,12.92-14,28.87-14S821.31,361.27,821.31,369Z"/><path class="cls-15" d="M792.43,385.68c-17.95,0-31.5-7.16-31.5-16.66s13.55-16.66,31.5-16.66,31.49,7.16,31.49,16.66S810.39,385.68,792.43,385.68Zm0-28.08c-15.7,0-26.25,5.91-26.25,11.42s10.55,11.42,26.25,11.42,26.25-5.91,26.25-11.42S807.46,357.6,792.43,357.6Z"/><rect class="cls-6" x="944.21" y="160.3" width="222.92" height="274.38"/><path class="cls-15" d="M1155,203.73v-32H956.28v32H966v14h-9.75v32H1155v-32H1143.8v-14ZM991.73,236.56h-13.8v-13.5h13.8Zm0-19.27h-13.8V203.78h13.8Zm0-18.92h-13.8V184.84h13.8Zm20.44,38.19H998.36v-13.5h13.81Zm0-19.27H998.36V203.78h13.81Zm0-18.92H998.36V184.84h13.81Zm20.1,38.19h-13.8v-13.5h13.8Zm0-19.27h-13.8V203.78h13.8Zm0-18.92h-13.8V184.84h13.8Zm19.91,38.19H1038.4v-13.5h13.78Zm0-19.27H1038.4V203.78h13.78Zm0-18.92H1038.4V184.84h13.78Zm20.43,38.19h-13.8v-13.5h13.8Zm0-19.27h-13.8V203.78h13.8Zm0-18.92h-13.8V184.84h13.8Zm20.14,38.19h-13.81v-13.5h13.81Zm0-19.27h-13.81V203.78h13.81Zm0-18.92h-13.81V184.84h13.81Zm30.9,37.8h-17.81V228h17.81Zm-9-23.11a14.25,14.25,0,1,1,14.22-14.25A14.25,14.25,0,0,1,1114.67,213.06Z"/><rect class="cls-6" x="1105.84" y="227.95" width="17.81" height="8.23"/><path class="cls-6" d="M1128.89,198.81a14.24,14.24,0,1,1-14.22-14.25A14.24,14.24,0,0,1,1128.89,198.81Z"/><rect class="cls-6" x="977.93" y="184.84" width="13.81" height="13.53"/><rect class="cls-6" x="998.36" y="184.84" width="13.81" height="13.53"/><rect class="cls-6" x="1018.47" y="184.84" width="13.81" height="13.53"/><rect class="cls-6" x="1038.4" y="184.84" width="13.78" height="13.53"/><rect class="cls-6" x="1058.81" y="184.84" width="13.81" height="13.53"/><rect class="cls-6" x="1078.94" y="184.84" width="13.81" height="13.53"/><rect class="cls-6" x="1078.94" y="203.78" width="13.81" height="13.5"/><rect class="cls-6" x="1058.81" y="203.78" width="13.81" height="13.5"/><rect class="cls-6" x="1038.4" y="203.78" width="13.78" height="13.5"/><rect class="cls-6" x="1018.47" y="203.78" width="13.81" height="13.5"/><rect class="cls-6" x="998.36" y="203.78" width="13.81" height="13.5"/><rect class="cls-6" x="977.93" y="203.78" width="13.81" height="13.5"/><rect class="cls-6" x="977.93" y="223.06" width="13.81" height="13.5"/><rect class="cls-6" x="998.36" y="223.06" width="13.81" height="13.5"/><rect class="cls-6" x="1018.47" y="223.06" width="13.81" height="13.5"/><rect class="cls-6" x="1038.4" y="223.06" width="13.78" height="13.5"/><rect class="cls-6" x="1058.81" y="223.06" width="13.81" height="13.5"/><rect class="cls-6" x="1078.94" y="223.06" width="13.81" height="13.5"/><path class="cls-15" d="M1155,376.72v-32H956.28v32H966v14h-9.75v32H1155v-32H1143.8v-14ZM991.73,409.56h-13.8V396.05h13.8Zm0-19.28h-13.8v-13.5h13.8Zm0-18.91h-13.8V357.84h13.8Zm20.44,38.19H998.36V396.05h13.81Zm0-19.28H998.36v-13.5h13.81Zm0-18.91H998.36V357.84h13.81Zm20.1,38.19h-13.8V396.05h13.8Zm0-19.28h-13.8v-13.5h13.8Zm0-18.91h-13.8V357.84h13.8Zm19.91,38.19H1038.4V396.05h13.78Zm0-19.28H1038.4v-13.5h13.78Zm0-18.91H1038.4V357.84h13.78Zm20.43,38.19h-13.8V396.05h13.8Zm0-19.28h-13.8v-13.5h13.8Zm0-18.91h-13.8V357.84h13.8Zm20.14,38.19h-13.81V396.05h13.81Zm0-19.28h-13.81v-13.5h13.81Zm0-18.91h-13.81V357.84h13.81Zm30.9,37.8h-17.81v-8.23h17.81Zm-9-23.11a14.25,14.25,0,1,1,14.22-14.25A14.25,14.25,0,0,1,1114.67,386.06Z"/><rect class="cls-6" x="1105.84" y="400.94" width="17.81" height="8.23"/><path class="cls-6" d="M1128.89,371.81a14.24,14.24,0,1,1-14.22-14.25A14.24,14.24,0,0,1,1128.89,371.81Z"/><rect class="cls-6" x="977.93" y="357.84" width="13.81" height="13.53"/><rect class="cls-6" x="998.36" y="357.84" width="13.81" height="13.53"/><rect class="cls-6" x="1018.47" y="357.84" width="13.81" height="13.53"/><rect class="cls-6" x="1038.4" y="357.84" width="13.78" height="13.53"/><rect class="cls-6" x="1058.81" y="357.84" width="13.81" height="13.53"/><rect class="cls-6" x="1078.94" y="357.84" width="13.81" height="13.53"/><rect class="cls-6" x="1078.94" y="376.78" width="13.81" height="13.51"/><rect class="cls-6" x="1058.81" y="376.78" width="13.81" height="13.51"/><rect class="cls-6" x="1038.4" y="376.78" width="13.78" height="13.51"/><rect class="cls-6" x="1018.47" y="376.78" width="13.81" height="13.51"/><rect class="cls-6" x="998.36" y="376.78" width="13.81" height="13.51"/><rect class="cls-6" x="977.93" y="376.78" width="13.81" height="13.51"/><rect class="cls-6" x="977.93" y="396.05" width="13.81" height="13.5"/><rect class="cls-6" x="998.36" y="396.05" width="13.81" height="13.5"/><rect class="cls-6" x="1018.47" y="396.05" width="13.81" height="13.5"/><rect class="cls-6" x="1038.4" y="396.05" width="13.78" height="13.5"/><rect class="cls-6" x="1058.81" y="396.05" width="13.81" height="13.5"/><rect class="cls-6" x="1078.94" y="396.05" width="13.81" height="13.5"/><path class="cls-15" d="M1155,290.23v-32H956.28v32H966v14h-9.75v32H1155v-32H1143.8v-14ZM991.73,323.06h-13.8V309.55h13.8Zm0-19.28h-13.8v-13.5h13.8Zm0-18.91h-13.8V271.34h13.8Zm20.44,38.19H998.36V309.55h13.81Zm0-19.28H998.36v-13.5h13.81Zm0-18.91H998.36V271.34h13.81Zm20.1,38.19h-13.8V309.55h13.8Zm0-19.28h-13.8v-13.5h13.8Zm0-18.91h-13.8V271.34h13.8Zm19.91,38.19H1038.4V309.55h13.78Zm0-19.28H1038.4v-13.5h13.78Zm0-18.91H1038.4V271.34h13.78Zm20.43,38.19h-13.8V309.55h13.8Zm0-19.28h-13.8v-13.5h13.8Zm0-18.91h-13.8V271.34h13.8Zm20.14,38.19h-13.81V309.55h13.81Zm0-19.28h-13.81v-13.5h13.81Zm0-18.91h-13.81V271.34h13.81Zm30.9,37.8h-17.81v-8.23h17.81Zm-9-23.11a14.25,14.25,0,1,1,14.22-14.25A14.25,14.25,0,0,1,1114.67,299.56Z"/><rect class="cls-6" x="1105.84" y="314.44" width="17.81" height="8.23"/><path class="cls-6" d="M1128.89,285.31a14.24,14.24,0,1,1-14.22-14.25A14.24,14.24,0,0,1,1128.89,285.31Z"/><rect class="cls-6" x="977.93" y="271.34" width="13.81" height="13.53"/><rect class="cls-6" x="998.36" y="271.34" width="13.81" height="13.53"/><rect class="cls-6" x="1018.47" y="271.34" width="13.81" height="13.53"/><rect class="cls-6" x="1038.4" y="271.34" width="13.78" height="13.53"/><rect class="cls-6" x="1058.81" y="271.34" width="13.81" height="13.53"/><rect class="cls-6" x="1078.94" y="271.34" width="13.81" height="13.53"/><rect class="cls-6" x="1078.94" y="290.28" width="13.81" height="13.51"/><rect class="cls-6" x="1058.81" y="290.28" width="13.81" height="13.51"/><rect class="cls-6" x="1038.4" y="290.28" width="13.78" height="13.51"/><rect class="cls-6" x="1018.47" y="290.28" width="13.81" height="13.51"/><rect class="cls-6" x="998.36" y="290.28" width="13.81" height="13.51"/><rect class="cls-6" x="977.93" y="290.28" width="13.81" height="13.51"/><rect class="cls-6" x="977.93" y="309.55" width="13.81" height="13.5"/><rect class="cls-6" x="998.36" y="309.55" width="13.81" height="13.5"/><rect class="cls-6" x="1018.47" y="309.55" width="13.81" height="13.5"/><rect class="cls-6" x="1038.4" y="309.55" width="13.78" height="13.5"/><rect class="cls-6" x="1058.81" y="309.55" width="13.81" height="13.5"/><rect class="cls-6" x="1078.94" y="309.55" width="13.81" height="13.5"/><path class="cls-2" d="M11.43,434.76H242.2c6.31,0,11.43,4.63,11.43,10.33v.21c0,5.7-5.12,10.33-11.43,10.33H11.43C5.12,455.63,0,451,0,445.3v-.21C0,439.39,5.12,434.76,11.43,434.76Z"/><rect class="cls-6" x="16.98" y="157.83" width="224.9" height="276.82"/><path class="cls-15" d="M229.69,201.65V169.38H29.16v32.27H39v14.09H29.16V248H229.69V215.74H218.35V201.65ZM64.93,234.77H51V221.15H64.93Zm0-19.45H51V201.7H64.93Zm0-19.08H51V182.59H64.93Zm20.62,38.53H71.62V221.15H85.55Zm0-19.45H71.62V201.7H85.55Zm0-19.08H71.62V182.59H85.55Zm20.28,38.53H91.9V221.15h13.93Zm0-19.45H91.9V201.7h13.93Zm0-19.08H91.9V182.59h13.93Zm20.08,38.53H112V221.15h13.9Zm0-19.45H112V201.7h13.9Zm0-19.08H112V182.59h13.9Zm20.62,38.53H132.6V221.15h13.93Zm0-19.45H132.6V201.7h13.93Zm0-19.08H132.6V182.59h13.93Zm20.31,38.53H152.91V221.15h13.93Zm0-19.45H152.91V201.7h13.93Zm0-19.08H152.91V182.59h13.93ZM198,234.38h-18v-8.3h18ZM189,211.06a14.38,14.38,0,1,1,14.35-14.37A14.37,14.37,0,0,1,189,211.06Z"/><rect class="cls-6" x="180.05" y="226.08" width="17.97" height="8.3"/><path class="cls-6" d="M203.31,196.69A14.37,14.37,0,1,1,189,182.31,14.37,14.37,0,0,1,203.31,196.69Z"/><rect class="cls-6" x="51" y="182.59" width="13.93" height="13.65"/><rect class="cls-6" x="71.62" y="182.59" width="13.93" height="13.65"/><rect class="cls-6" x="91.9" y="182.59" width="13.93" height="13.65"/><rect class="cls-6" x="112.01" y="182.59" width="13.9" height="13.65"/><rect class="cls-6" x="132.6" y="182.59" width="13.93" height="13.65"/><rect class="cls-6" x="152.91" y="182.59" width="13.93" height="13.65"/><rect class="cls-6" x="152.91" y="201.7" width="13.93" height="13.62"/><rect class="cls-6" x="132.6" y="201.7" width="13.93" height="13.62"/><rect class="cls-6" x="112.01" y="201.7" width="13.9" height="13.62"/><rect class="cls-6" x="91.9" y="201.7" width="13.93" height="13.62"/><rect class="cls-6" x="71.62" y="201.7" width="13.93" height="13.62"/><rect class="cls-6" x="51" y="201.7" width="13.93" height="13.62"/><rect class="cls-6" x="51" y="221.15" width="13.93" height="13.62"/><rect class="cls-6" x="71.62" y="221.15" width="13.93" height="13.62"/><rect class="cls-6" x="91.9" y="221.15" width="13.93" height="13.62"/><rect class="cls-6" x="112.01" y="221.15" width="13.9" height="13.62"/><rect class="cls-6" x="132.6" y="221.15" width="13.93" height="13.62"/><rect class="cls-6" x="152.91" y="221.15" width="13.93" height="13.62"/><path class="cls-15" d="M229.69,376.18V343.92H29.16v32.26H39v14.09H29.16v32.26H229.69V390.27H218.35V376.18ZM64.93,409.3H51V395.68H64.93Zm0-19.44H51V376.23H64.93Zm0-19.09H51V357.12H64.93ZM85.55,409.3H71.62V395.68H85.55Zm0-19.44H71.62V376.23H85.55Zm0-19.09H71.62V357.12H85.55Zm20.28,38.53H91.9V395.68h13.93Zm0-19.44H91.9V376.23h13.93Zm0-19.09H91.9V357.12h13.93Zm20.08,38.53H112V395.68h13.9Zm0-19.44H112V376.23h13.9Zm0-19.09H112V357.12h13.9Zm20.62,38.53H132.6V395.68h13.93Zm0-19.44H132.6V376.23h13.93Zm0-19.09H132.6V357.12h13.93Zm20.31,38.53H152.91V395.68h13.93Zm0-19.44H152.91V376.23h13.93Zm0-19.09H152.91V357.12h13.93ZM198,408.91h-18v-8.3h18ZM189,385.59a14.38,14.38,0,1,1,14.35-14.37A14.37,14.37,0,0,1,189,385.59Z"/><rect class="cls-6" x="180.05" y="400.61" width="17.97" height="8.3"/><path class="cls-6" d="M203.31,371.22A14.37,14.37,0,1,1,189,356.84,14.37,14.37,0,0,1,203.31,371.22Z"/><rect class="cls-6" x="51" y="357.12" width="13.93" height="13.65"/><rect class="cls-6" x="71.62" y="357.12" width="13.93" height="13.65"/><rect class="cls-6" x="91.9" y="357.12" width="13.93" height="13.65"/><rect class="cls-6" x="112.01" y="357.12" width="13.9" height="13.65"/><rect class="cls-6" x="132.6" y="357.12" width="13.93" height="13.65"/><rect class="cls-6" x="152.91" y="357.12" width="13.93" height="13.65"/><rect class="cls-6" x="152.91" y="376.23" width="13.93" height="13.63"/><rect class="cls-6" x="132.6" y="376.23" width="13.93" height="13.63"/><rect class="cls-6" x="112.01" y="376.23" width="13.9" height="13.63"/><rect class="cls-6" x="91.9" y="376.23" width="13.93" height="13.63"/><rect class="cls-6" x="71.62" y="376.23" width="13.93" height="13.63"/><rect class="cls-6" x="51" y="376.23" width="13.93" height="13.63"/><rect class="cls-6" x="51" y="395.68" width="13.93" height="13.62"/><rect class="cls-6" x="71.62" y="395.68" width="13.93" height="13.62"/><rect class="cls-6" x="91.9" y="395.68" width="13.93" height="13.62"/><rect class="cls-6" x="112.01" y="395.68" width="13.9" height="13.62"/><rect class="cls-6" x="132.6" y="395.68" width="13.93" height="13.62"/><rect class="cls-6" x="152.91" y="395.68" width="13.93" height="13.62"/><path class="cls-15" d="M229.69,288.91V256.65H29.16v32.26H39V303H29.16v32.26H229.69V303H218.35v-14.1ZM64.93,322H51V308.41H64.93Zm0-19.44H51V289H64.93Zm0-19.08H51V269.86H64.93ZM85.55,322H71.62V308.41H85.55Zm0-19.44H71.62V289H85.55Zm0-19.08H71.62V269.86H85.55ZM105.83,322H91.9V308.41h13.93Zm0-19.44H91.9V289h13.93Zm0-19.08H91.9V269.86h13.93ZM125.91,322H112V308.41h13.9Zm0-19.44H112V289h13.9Zm0-19.08H112V269.86h13.9ZM146.53,322H132.6V308.41h13.93Zm0-19.44H132.6V289h13.93Zm0-19.08H132.6V269.86h13.93ZM166.84,322H152.91V308.41h13.93Zm0-19.44H152.91V289h13.93Zm0-19.08H152.91V269.86h13.93ZM198,321.64h-18v-8.3h18ZM189,298.33A14.38,14.38,0,1,1,203.31,284,14.38,14.38,0,0,1,189,298.33Z"/><rect class="cls-6" x="180.05" y="313.34" width="17.97" height="8.3"/><path class="cls-6" d="M203.31,284A14.37,14.37,0,1,1,189,269.58,14.38,14.38,0,0,1,203.31,284Z"/><rect class="cls-6" x="51" y="269.86" width="13.93" height="13.65"/><rect class="cls-6" x="71.62" y="269.86" width="13.93" height="13.65"/><rect class="cls-6" x="91.9" y="269.86" width="13.93" height="13.65"/><rect class="cls-6" x="112.01" y="269.86" width="13.9" height="13.65"/><rect class="cls-6" x="132.6" y="269.86" width="13.93" height="13.65"/><rect class="cls-6" x="152.91" y="269.86" width="13.93" height="13.65"/><rect class="cls-6" x="152.91" y="288.96" width="13.93" height="13.63"/><rect class="cls-6" x="132.6" y="288.96" width="13.93" height="13.63"/><rect class="cls-6" x="112.01" y="288.96" width="13.9" height="13.63"/><rect class="cls-6" x="91.9" y="288.96" width="13.93" height="13.63"/><rect class="cls-6" x="71.62" y="288.96" width="13.93" height="13.63"/><rect class="cls-6" x="51" y="288.96" width="13.93" height="13.63"/><rect class="cls-6" x="51" y="308.41" width="13.93" height="13.62"/><rect class="cls-6" x="71.62" y="308.41" width="13.93" height="13.62"/><rect class="cls-6" x="91.9" y="308.41" width="13.93" height="13.62"/><rect class="cls-6" x="112.01" y="308.41" width="13.9" height="13.62"/><rect class="cls-6" x="132.6" y="308.41" width="13.93" height="13.62"/><rect class="cls-6" x="152.91" y="308.41" width="13.93" height="13.62"/><path class="cls-15" d="M365,413.89a7.81,7.81,0,1,1-9.65-5.37A7.82,7.82,0,0,1,365,413.89Z"/><path class="cls-15" d="M388.2,415.39l-28.45,8.12a5.67,5.67,0,0,1-7-3.89h0c-.86-3,1.18-10.69,4.19-11.55l29.84.27c3.29,0,5.06,4.13,2.63,6.35A3.15,3.15,0,0,1,388.2,415.39Z"/><path class="cls-6" d="M366.53,411.73h0a1.31,1.31,0,0,1-1.23-1.61l.7-2.95a1.3,1.3,0,0,1,1.33-1h0a1.31,1.31,0,0,1,1.23,1.62l-.7,2.94A1.3,1.3,0,0,1,366.53,411.73Z"/><path class="cls-6" d="M370.77,411.91h0a1.31,1.31,0,0,1-1.23-1.61l.7-2.95a1.32,1.32,0,0,1,1.34-1h0A1.31,1.31,0,0,1,372.8,408l-.7,2.95A1.3,1.3,0,0,1,370.77,411.91Z"/><path class="cls-15" d="M348.91,361.22l-.15-.08-41.39-24.4L295,350.16l43.42,23,2,8.48,1.44,6c.49,2,.9,4,1.36,6l5.35,23.88.31-.05,11.64-10.55-3-16.27c-.39-2-.75-4.12-1.17-6.13l-1.22-6.08-2.45-12.15A7.43,7.43,0,0,0,348.91,361.22Z"/><path class="cls-16" d="M267.58,426.29a7.81,7.81,0,1,1-4-10.31A7.8,7.8,0,0,1,267.58,426.29Z"/><path class="cls-15" d="M284.44,442.32l-27-12a5.67,5.67,0,0,1-2.87-7.48h0c1.27-2.86,7.76-7.44,10.62-6.17L287.87,436c2.51,2.13,1.24,6.41-2,6.55A3.09,3.09,0,0,1,284.44,442.32Z"/><path class="cls-6" d="M270.16,425.62h0a1.31,1.31,0,0,1,.1-2l2.42-1.81a1.31,1.31,0,0,1,1.67.08h0a1.32,1.32,0,0,1-.1,2l-2.42,1.81A1.31,1.31,0,0,1,270.16,425.62Z"/><path class="cls-6" d="M273.3,428.48h0a1.32,1.32,0,0,1,.09-2l2.43-1.81a1.31,1.31,0,0,1,1.67.08h0a1.32,1.32,0,0,1-.1,2L275,428.56A1.31,1.31,0,0,1,273.3,428.48Z"/><path class="cls-15" d="M313.2,325.74l-27.44-3c-1.71,1.93-3.77,7.92-4.38,10.61a16,16,0,0,0,12.06,19.12c2.11.48,12.52.64,17.41-4.13C318,341.36,313.2,325.74,313.2,325.74Z"/><path class="cls-15" d="M296.08,340.41H278.41l6.79,42-29.81,34.73,15.47,4.35,28.45-31.91a7.39,7.39,0,0,0,1.76-6Z"/><path class="cls-10" d="M368.26,322.54l-40.91-.71a4.89,4.89,0,0,1-4.26-2.68l-16-31.88,8.69-4.37,14.71,29.25,38,.67Z"/><polygon class="cls-17" points="309.86 257.67 308.62 283.48 296.66 282.91 298.39 257.98 298.88 250.89 309.86 257.67"/><path class="cls-18" d="M300.71,265.81s2.71,6.64,8.37,8.3l.41-8.65Z"/><path class="cls-17" d="M313.76,273c.47-.08,1.4-.34,1.87-.46,4.45-1.22,8.84-8.56,8.67-12.79-.2-5-.73-7.57-.44-11,.41-4.68-4.14-8.35-8.84-8.17l-9.53.38a6.5,6.5,0,0,0-6.22,6.74l.62,15.45C300.11,268.64,308.31,273.82,313.76,273Z"/><path class="cls-18" d="M294.1,276.38a6.6,6.6,0,0,1,4.48-1.08l5.29.61a15.06,15.06,0,0,1,6.89,2.6C305.28,280.1,298.67,279.55,294.1,276.38Z"/><path class="cls-10" d="M285.87,286.55c.24-4.16,3.93-9.76,8.47-10.32,7.67,1.08,14.56,1.5,17.15,2.12a15.19,15.19,0,0,1,6.45,14.25l-.68,47.77c-14.35,10.12-40.63,6.05-40.63,6.05C276.63,325.8,285.4,294.73,285.87,286.55Z"/><path class="cls-10" d="M339.5,322.27l-33.4.36a4.87,4.87,0,0,1-4.87-4.14l-5.49-36.77,9.62-1.44,4.87,32.58,29.17-.31Z"/><path class="cls-19" d="M310.13,278.1c-2.18-.52-6.07-.65-12.25-1.4,3.43,8,12.68,14.73,15.42,24.16C314.73,299.29,314.59,281.19,310.13,278.1Z"/><path class="cls-15" d="M309.75,279.58c-.4-.46-1.68-1.35-1.71-1.83-1-.12-.83.26-2.2.13,3.74,3.46,1.57,9.17,3.05,14.39a29.16,29.16,0,0,1,4.41,8.59c.79-.87,1.1-6.81.46-12.47A19,19,0,0,0,309.75,279.58Z"/><path class="cls-20" d="M310.19,280.47a3.29,3.29,0,0,1-3.12.46c-.6-.43-1.19-2.77-1.19-2.77l4.64-.69S310.64,279.88,310.19,280.47Z"/><path class="cls-8" d="M318.4,249.94c18.44-4,5.16-15.73,5.16-15.73s-.37,4.37-3.94,2.94c-6.83-2.74-21.69-4.45-25.77,4.46-3.18,6.95,2.74,22.15,3.86,26.12,1.84-1.16.29-19,7.85-18.3C309.68,249.84,314.37,250.82,318.4,249.94Z"/><path class="cls-21" d="M315.61,269.1c3.77-.16,1.35-6.38-.09-6.31S311.85,269.27,315.61,269.1Z"/><polygon class="cls-6" points="303.52 282.58 294.17 276.36 297.33 272.89 308.46 277.83 303.52 282.58"/><polygon class="cls-6" points="311.3 280.18 310.76 278.11 308.97 276.23 308.2 277.83 311.3 280.18"/><rect class="cls-20" x="323.55" y="302.72" width="38.04" height="10.25"/><polygon class="cls-22" points="379.77 310.66 379.77 305.01 385.13 305.01 385.13 302.72 361.59 302.72 361.59 312.96 385.13 312.96 385.13 310.66 379.77 310.66"/><rect class="cls-23" x="361.59" y="305.01" width="21.27" height="5.67"/><path class="cls-24" d="M332.58,307.84a2.57,2.57,0,1,1-2.57-2.56A2.56,2.56,0,0,1,332.58,307.84Z"/><path class="cls-6" d="M330,311.1a3.26,3.26,0,1,1,3.26-3.26A3.26,3.26,0,0,1,330,311.1Zm0-5.12a1.86,1.86,0,1,0,1.87,1.86A1.86,1.86,0,0,0,330,306Z"/><rect class="cls-19" x="323.55" y="282.23" width="38.04" height="10.24"/><polygon class="cls-25" points="379.77 290.17 379.77 284.52 385.13 284.52 385.13 282.23 361.59 282.23 361.59 292.47 385.13 292.47 385.13 290.17 379.77 290.17"/><rect class="cls-23" x="361.59" y="284.51" width="21.27" height="5.67"/><path class="cls-24" d="M332.58,287.35a2.57,2.57,0,1,1-2.57-2.56A2.57,2.57,0,0,1,332.58,287.35Z"/><path class="cls-6" d="M330,290.61a3.26,3.26,0,1,1,3.26-3.26A3.26,3.26,0,0,1,330,290.61Zm0-5.12a1.86,1.86,0,1,0,1.87,1.86A1.86,1.86,0,0,0,330,285.49Z"/><rect class="cls-26" x="328.19" y="271.98" width="38.04" height="10.25"/><polygon class="cls-27" points="384.41 279.93 384.41 274.28 389.77 274.28 389.77 271.98 366.23 271.98 366.23 282.23 389.77 282.23 389.77 279.93 384.41 279.93"/><rect class="cls-23" x="366.23" y="274.27" width="21.27" height="5.67"/><path class="cls-24" d="M337.21,277.1a2.56,2.56,0,1,1-2.56-2.56A2.56,2.56,0,0,1,337.21,277.1Z"/><path class="cls-6" d="M334.65,280.37a3.27,3.27,0,1,1,3.26-3.27A3.27,3.27,0,0,1,334.65,280.37Zm0-5.13a1.87,1.87,0,1,0,1.86,1.86A1.86,1.86,0,0,0,334.65,275.24Z"/><rect class="cls-16" x="315" y="292.47" width="38.04" height="10.25"/><polygon class="cls-24" points="371.22 300.42 371.22 294.77 376.57 294.77 376.57 292.47 353.04 292.47 353.04 302.72 376.57 302.72 376.57 300.42 371.22 300.42"/><rect class="cls-23" x="353.04" y="294.76" width="21.27" height="5.67"/><path class="cls-24" d="M324,297.59a2.56,2.56,0,1,1-2.56-2.56A2.57,2.57,0,0,1,324,297.59Z"/><path class="cls-6" d="M321.46,300.86a3.27,3.27,0,1,1,3.26-3.27A3.27,3.27,0,0,1,321.46,300.86Zm0-5.13a1.87,1.87,0,1,0,1.86,1.86A1.86,1.86,0,0,0,321.46,295.73Z"/><path class="cls-17" d="M333.85,317.4a8.3,8.3,0,0,1,1.06-5.65l12.55-2.11a8.35,8.35,0,1,1-13.61,7.76Z"/><path class="cls-17" d="M360.35,315.08a8.31,8.31,0,0,1,1.53-5.54l12.69-1.06a8.35,8.35,0,1,1-14.22,6.6Z"/><path class="cls-15" d="M1037.76,100.79c-1.28-1.85.46-4.94-.63-8.6-3.27-11.07.57-15.89.57-15.89-.07-4.06,3.35-7.62,8.45-9.5a23.93,23.93,0,0,1,8.09-1.41,22.35,22.35,0,0,1,11.54,2.89c3.25,1.94,5.6,4.73,5.34,7.81-.18,2.18-2.53,5.06-.14,8.74,5.88,9.09,3.33,14.33.2,16-2.88,1.5-6.19,1.62-7.89,2.59C1054.62,108.34,1042.29,107.36,1037.76,100.79Z"/><path class="cls-18" d="M1010.56,141.3a56.48,56.48,0,0,1-6.2-1.08,2.91,2.91,0,1,1,1.31-5.67c9.94,2.3,18.08,1.32,24.19-2.92,9.34-6.48,11-18.43,11-18.55a2.91,2.91,0,1,1,5.77.75c-.08.6-2,14.65-13.46,22.58C1027,140.66,1019.45,142.3,1010.56,141.3Z"/><path class="cls-15" d="M1039.5,117.53a8.11,8.11,0,0,0-1.6.16,28.87,28.87,0,0,0,1.29-4.83,4.62,4.62,0,0,1,4.59-4,3.82,3.82,0,0,1,.57,0,4.6,4.6,0,0,1,4,5.17,37.22,37.22,0,0,1-2.22,8A6.68,6.68,0,0,0,1039.5,117.53Z"/><path class="cls-18" d="M1045,115.08a3.22,3.22,0,0,1-.92-5.09,10.18,10.18,0,0,1,7.37-3.27l.75,0a8.07,8.07,0,0,1,6.46,2.84C1057.4,113.35,1049,116.62,1045,115.08Z"/><path class="cls-18" d="M1049.9,100.87l-.07,3.29-.12,6.16,4.73.09.15-7.88.06-3.06A7.83,7.83,0,0,1,1049.9,100.87Z"/><path class="cls-18" d="M1049.9,101.66l-.07,3.28a8.2,8.2,0,0,0,4.77-2.24l.05-2.45A7.84,7.84,0,0,1,1049.9,101.66Z"/><path class="cls-18" d="M1051.07,103.35h0a13.75,13.75,0,0,0,13.6-13.88l-.05-5.4a13.76,13.76,0,0,0-13.88-13.61h0a13.75,13.75,0,0,0-13.61,13.88l.06,5.41a13.73,13.73,0,0,0,13.88,13.6Z"/><path class="cls-26" d="M1036.32,148.06c-1.6,7,7.1,14,14.12,15.61a13,13,0,0,0,5.79-25.44C1049.21,136.63,1037.92,141,1036.32,148.06Z"/><path class="cls-21" d="M1050.16,96.2a3.67,3.67,0,0,1-7.22.08Z"/><path class="cls-15" d="M1037.23,118.26c-.89,2.46,1.58,5.46,4.18,5.74s5.77-3.11,6-5.71-3.59-8.29-5-6.12S1038,116.16,1037.23,118.26Z"/><path class="cls-15" d="M1058.64,109.53a8,8,0,0,1,1.92,4.86s-4.23,20.46,4.71,31.29c0,0-16.13,9.66-29.08,3.13,0-9.27,5.67-15.67,4.77-30.7a10.7,10.7,0,0,1,3.1-8.12C1044.18,114.77,1054,109,1058.64,109.53Z"/><path class="cls-10" d="M1041,206.49a4.36,4.36,0,0,0-4.08,2.2c-1.65,3.12-1.89,6.66-5,11.89-2.13,3.58-3.72,4.1-5.3,7-1.36,2.52.94,3.83,3.54,3.32,1-.2,7.28-.71,8.24-5.47.7-3.48,6.34-4.62,6.54-5.87.12-.76-.41-3.21-.11-6.26C1045.18,209.59,1043.06,206.76,1041,206.49Z"/><path class="cls-18" d="M1035.66,222.56c1.75-2.57,4.76-10.9,4.37-12.93-.47-2.38-5.09-3.37-5.73-1.42-1.11,3.35-.76,9.61-4.74,15.55C1029.61,225.51,1033.63,225.56,1035.66,222.56Z"/><path class="cls-10" d="M969.25,174a4.35,4.35,0,0,0,.68-4.59c-1.52-3.19-4.2-5.5-6.53-11.13-1.59-3.84-1.07-5.42-2.47-8.45-1.2-2.59-3.63-1.53-4.77.86-.45.93-3.79,6.26-.55,9.87,2.37,2.64-.08,7.84.8,8.75.53.56,2.82,1.59,5.08,3.66C964.26,175.55,967.8,175.54,969.25,174Z"/><path class="cls-18" d="M959.55,160.16c1,2.94,5.9,10.34,7.76,11.23,2.19,1.05,5.74-2.06,4.56-3.74-2-2.89-7.25-6.35-9.62-13.09C960.81,153.55,958.37,156.74,959.55,160.16Z"/><path class="cls-26" d="M1022.76,166.85l.22-.1,30.8-14.14a5.81,5.81,0,0,1,4.86,10.56l-.06,0L1032.07,175l9.38,32.17-8.06,2.67L1020,173.64A5.42,5.42,0,0,1,1022.76,166.85Z"/><path class="cls-18" d="M1051,149.22c-1.5,0-3.1-.09-4.79-.26a2.91,2.91,0,0,1,.6-5.79c5.37.56,12.28.38,14.72-3.61,3.83-6.29-3.41-20.15-6.25-24.5a2.9,2.9,0,1,1,4.86-3.18c1.33,2,12.78,20.17,6.35,30.71C1063.84,147,1058.64,149.22,1051,149.22Z"/><path class="cls-15" d="M1066.18,85.56s-9.75,3.48-15.83-.75-8.87-10.76-6.21-14.58,9.74-3.48,15.83.75S1066.18,85.56,1066.18,85.56Z"/><path class="cls-26" d="M1054.06,151.24s-5.4.14-13.48.47l-13.8.66-15.81.94-2,.12-.5,0h-.13l-.56.05-.25,0-1,.15-2,.3-.13,0-.48.09-.06,0-.25.06-.48.11-1,.24-7.57,1.88c-2.45.61-4.83,1.17-7.07,1.77l-6.32,1.66c-3.91,1-7.16,2-9.43,2.58l-3.57,1,1.63,7.3,3.66-.59c2.33-.41,5.66-.94,9.64-1.69l6.42-1.18c2.29-.41,4.68-.92,7.16-1.4l7.64-1.52,1-.2.49-.1.25,0h.06l-.4.07h.16l2-.24,1-.12.25,0h0l-.41,0h.19l.51,0,2-.08,15.82-.61,13.8-.71c8.08-.46,13.46-.85,13.46-.85Z"/><path class="cls-24" d="M1052.29,154.67a1.76,1.76,0,0,0-1.75-1.75H987.2c-1.33,0-2.41.79-2.41,1.75s1.08,1.75,2.41,1.75h63.34a1.75,1.75,0,0,0,1.75-1.75Z"/><path class="cls-6" d="M1054.77,154.67a1.83,1.83,0,0,1-1.88,1.75h-24.06a1.75,1.75,0,1,1,0-3.5h24.06A1.83,1.83,0,0,1,1054.77,154.67Z"/><rect class="cls-6" x="984.89" y="117.57" width="47.29" height="37.09" rx="2.58"/><rect class="cls-15" x="982.92" y="117.57" width="47.29" height="37.09" rx="2.58"/><path class="cls-6" d="M1013.52,136.12h0a2.72,2.72,0,0,0-2.72-2.72h-8.47a2.71,2.71,0,0,0-2.71,2.72h0a2.71,2.71,0,0,0,2.71,2.71h8.47A2.71,2.71,0,0,0,1013.52,136.12Z"/><path class="cls-15" d="M1063.46,117a6.66,6.66,0,0,0-6.54,4.42,52.52,52.52,0,0,0-3-5.46,4.61,4.61,0,1,1,7.72-5,65.93,65.93,0,0,1,3.58,6.27A7.9,7.9,0,0,0,1063.46,117Z"/><path class="cls-18" d="M1033.65,143.78a7,7,0,0,0-.31,4.82l9.78,4.32a7,7,0,1,0-9.47-9.14Z"/><path class="cls-11" d="M236.55,73c1.71,3.64,14.44,27.63,51.12,27l-.12-6.69c-34.18.58-44.62-22.39-45.05-23.39l-6.14,2.65Z"/><path class="cls-17" d="M295,91.12a6.53,6.53,0,0,1,2.69,3.61l-5.45,8.36a6.54,6.54,0,1,1,2.76-12Z"/><path class="cls-17" d="M226.83,170.17c.54-1.45,13.38-35.76,13.38-56.77h-7.62c0,19.62-12.77,53.74-12.89,54.09Z"/><path class="cls-17" d="M264.83,147.57l14.28-20.42a3.81,3.81,0,0,0-1.11-5.42l-19.68-12.24-4,6.47,16.26,10.12-12,17.12Z"/><path class="cls-15" d="M223.3,36.3a100.59,100.59,0,0,1,7.3-8,5.24,5.24,0,0,1,7.6.37c20.73-3.18,24.63,26.43,15.18,33.81-7.65,6-14,1.86-14,1.86a26.64,26.64,0,0,1-10.92,4.23c-4.09.63-9-2.06-9-2.06s-5.78,4.14-10.22-2,2.13-12.6,5.61-12.66c0,0-4.17-5,1.55-8.36C218.58,42.17,223.3,36.3,223.3,36.3Z"/><path class="cls-17" d="M248.94,73.09a3,3,0,0,0,.85-4.76,9.51,9.51,0,0,0-6.9-3.07l-.7,0a7.54,7.54,0,0,0-6,2.65C237.3,71.47,245.16,74.54,248.94,73.09Z"/><path class="cls-17" d="M244.74,59.79l.06,3.08.12,5.77-4.44.08-.14-7.38-.06-2.86A7.32,7.32,0,0,0,244.74,59.79Z"/><g class="cls-28"><path class="cls-18" d="M244.74,59.79l.06,3.08a7.73,7.73,0,0,1-4.47-2.1l-.05-2.29A7.32,7.32,0,0,0,244.74,59.79Z"/></g><path class="cls-17" d="M247.21,59.79h0a12.86,12.86,0,0,1-17.27-5.71l-2.27-4.52a12.86,12.86,0,0,1,5.71-17.27h0A12.84,12.84,0,0,1,250.65,38l2.28,4.52a12.85,12.85,0,0,1-5.72,17.27Z"/><path class="cls-15" d="M233,46.47c9.23,1.5,10.24-8.45,9.72-12.55-1.1-8.56-12.29-6.91-16.2-2.65A22.06,22.06,0,0,0,221.66,50c1.85,8.88,10.92,14.4,10.92,14.4,10-7.3-.33-14.3-.33-14.3Z"/><path class="cls-26" d="M253,104a12.2,12.2,0,1,1-14.61-9.2A12.19,12.19,0,0,1,253,104Z"/><path class="cls-21" d="M246.2,52.78a3.43,3.43,0,0,0,6-3Z"/><path class="cls-11" d="M262,110.16c-16.13,14-36.13,20.85-36.13,20.85,3.91-8.38-5.12-18.62,4.14-29.34,3.82-4.43,23.3,2,23.3,2Z"/><path class="cls-11" d="M255.42,75.14c.84,2.3-1.49,4.62-3.92,4.88a4.42,4.42,0,0,1-4.89-3.92c-.27-2.44,3.36-7.77,4.73-5.74S254.7,73.16,255.42,75.14Z"/><path class="cls-11" d="M236.15,67.89a7.25,7.25,0,0,0-1.8,4.55s1.09,20.06-4.41,29.29c-2.36,4,23.45,3.87,23.45,3.87l-.69-29.67a10.19,10.19,0,0,0-2.91-7.6C249.68,72.8,238.44,65.36,236.15,67.89Z"/><path class="cls-11" d="M240.28,75c4.15.4,32.22,1.8,51.1-31.15l-6-3.44c-17.6,30.71-43.56,27.82-44.67,27.68l-.9,6.86Z"/><path class="cls-17" d="M287.54,33.19a6.49,6.49,0,0,1,4.48-.46l4.4,9a6.48,6.48,0,0,1-3.11,3.26,6.55,6.55,0,1,1-5.77-11.75Z"/><path class="cls-15" d="M264.4,147.93a5,5,0,1,1-5-5A5,5,0,0,1,264.4,147.93Z"/><path class="cls-15" d="M278.36,152.86l-18.83.06a3.6,3.6,0,0,1-3.61-3.59h0c0-2,2.57-6.35,4.56-6.35l18.22,5.32a2.37,2.37,0,0,1,.52,4.34A2,2,0,0,1,278.36,152.86Z"/><path class="cls-15" d="M226.35,174.4a5,5,0,1,1-.89-7A5,5,0,0,1,226.35,174.4Z"/><path class="cls-15" d="M234.34,186.86l-14.88-11.52a3.59,3.59,0,0,1-.65-5.05h0c1.22-1.57,5.92-3.42,7.5-2.21l11.11,15.4a2.36,2.36,0,0,1-2.26,3.74A1.89,1.89,0,0,1,234.34,186.86Z"/><path class="cls-8" d="M245.23,103.14a29.48,29.48,0,0,0,6.27-.66l-.23-1.07a28.87,28.87,0,0,1-18.61-2.26l-.53.95A28.55,28.55,0,0,0,245.23,103.14Z"/><rect class="cls-12" x="207.75" y="168.68" width="1.55" height="12.27"/><rect class="cls-12" x="215.5" y="175.21" width="1.55" height="16.78"/><rect class="cls-12" x="215.5" y="154.57" width="1.55" height="9.73"/><path class="cls-11" d="M867.61,419.39a5.64,5.64,0,0,1-4.57-2.32l-19.62-26.85a5.68,5.68,0,0,1,.2-6.94l25.63-31.13a5.67,5.67,0,0,1,8.75,7.2l-22.83,27.74,17,23.29a5.66,5.66,0,0,1-4.57,9Z"/><path class="cls-11" d="M905.26,419.34a5.67,5.67,0,0,1-4.57-9L917.78,387,895,359.32a5.67,5.67,0,1,1,8.75-7.2l25.54,31.05a5.68,5.68,0,0,1,.19,6.95L909.83,417A5.64,5.64,0,0,1,905.26,419.34Z"/><path class="cls-8" d="M903.36,317.45A16.35,16.35,0,1,1,887,301.1,16.35,16.35,0,0,1,903.36,317.45Z"/><polygon class="cls-17" points="893 337.53 892.97 353.08 892.93 363.25 881.02 363.21 881.62 338.36 881.79 331.29 893 337.53"/><path class="cls-11" d="M869.29,361.89c0-4.85,4.23-9.54,8.57-11.8,6.5-3.38,16.53-1,19.73.88,5.43,3.23,8.67,9.8,8.29,16.56l.38,36.26h-38.5S869.2,372.93,869.29,361.89Z"/><path class="cls-17" d="M895.55,350c-4.74-2-11.43-2.65-16.84-.33l4,4a6.48,6.48,0,0,0,9.16,0Z"/><path class="cls-17" d="M890.11,308.1h-6.2c-5.48,0-10.61,4.48-9.92,9.92.5,4,0,6.93,0,12.81,0,4.92,5.77,14.48,10.69,14.48h4.66c4.92,0,10.69-9.56,10.69-14.48,0-5.88-.5-8.85,0-12.81C900.72,312.58,895.59,308.1,890.11,308.1Z"/><path class="cls-21" d="M882,336.45a5.12,5.12,0,0,0,10.06,0Z"/><path class="cls-25" d="M893.2,438.46H880.83A14.08,14.08,0,0,1,867,421.62l.74-17.83h38.5l.74,17.83A14.07,14.07,0,0,1,893.2,438.46Z"/><path class="cls-15" d="M830.68,418.57l52.56-5,1.5,15.74-52.56,5a7.82,7.82,0,0,1-8.54-7.05l0-.16A7.83,7.83,0,0,1,830.68,418.57Z"/><path class="cls-15" d="M935.61,418.57l-52.56-5-1.51,15.74,52.57,5a7.82,7.82,0,0,0,8.53-7.05l0-.16A7.83,7.83,0,0,0,935.61,418.57Z"/><rect class="cls-6" x="862.61" y="394.32" width="48.81" height="34.94" rx="3.83"/><rect class="cls-29" x="862.61" y="395.94" width="48.81" height="34.94" rx="3.83"/><rect class="cls-6" x="878.49" y="410.5" width="17.03" height="5.82" rx="2.88"/><path class="cls-6" d="M866.29,445.31l15.32-.92-.05.29a1.44,1.44,0,1,0,2.84.46l.15-.92,1.72-.11-.07.44A1.44,1.44,0,0,0,889,445l.18-1.08,9.63-.58a3,3,0,0,0,.59-.31,7.62,7.62,0,0,0,1.13-.32,8.53,8.53,0,1,0-5.81-16.05l-.09,0h0l-30.41,11a3.32,3.32,0,0,0-1.27.87C860.45,441.2,862.7,445.53,866.29,445.31Z"/><path class="cls-8" d="M889.7,439.7a8.53,8.53,0,1,1,10.93,5.12A8.53,8.53,0,0,1,889.7,439.7Z"/><path class="cls-8" d="M864.26,439.82l30.41-11a6.19,6.19,0,0,1,7.93,3.71h0c1.16,3.22-.48,11.75-3.69,12.91l-32.57,2c-3.58.22-5.83-4.12-3.35-6.72A3.49,3.49,0,0,1,864.26,439.82Z"/><path class="cls-6" d="M888.17,442.18h0a1.42,1.42,0,0,1,1.46,1.66l-.54,3.27a1.43,1.43,0,0,1-1.38,1.2h0a1.43,1.43,0,0,1-1.45-1.67l.53-3.26A1.42,1.42,0,0,1,888.17,442.18Z"/><path class="cls-6" d="M883.53,442.3h0A1.43,1.43,0,0,1,885,444l-.54,3.26a1.42,1.42,0,0,1-1.38,1.2h0a1.43,1.43,0,0,1-1.45-1.67l.53-3.26A1.43,1.43,0,0,1,883.53,442.3Z"/><path class="cls-17" d="M932.41,421.88l-35.51,9.56a6.39,6.39,0,0,0-4.52,7.84l0,.13a6.4,6.4,0,0,0,7.85,4.51l35.51-9.55a6.4,6.4,0,0,0,4.52-7.84l0-.13A6.42,6.42,0,0,0,932.41,421.88Z"/><path class="cls-6" d="M900,445.31l-15.32-.92.05.29a1.44,1.44,0,1,1-2.84.46l-.15-.92-1.73-.11.08.44a1.44,1.44,0,0,1-1.46,1.67,1.42,1.42,0,0,1-1.38-1.2l-.18-1.08-9.63-.58a2.85,2.85,0,0,1-.6-.31,7.85,7.85,0,0,1-1.12-.32,8.53,8.53,0,1,1,5.8-16.05l.1,0h0l30.41,11a3.4,3.4,0,0,1,1.27.87C905.83,441.2,903.59,445.53,900,445.31Z"/><path class="cls-8" d="M876.59,439.7a8.53,8.53,0,1,0-10.93,5.12A8.53,8.53,0,0,0,876.59,439.7Z"/><path class="cls-8" d="M902,439.82l-30.41-11a6.19,6.19,0,0,0-7.92,3.71h0c-1.17,3.22.48,11.75,3.69,12.91l32.56,2c3.59.22,5.84-4.12,3.35-6.72A3.33,3.33,0,0,0,902,439.82Z"/><path class="cls-6" d="M878.11,442.18h0a1.42,1.42,0,0,0-1.45,1.66l.53,3.27a1.43,1.43,0,0,0,1.38,1.2h0a1.44,1.44,0,0,0,1.46-1.67l-.54-3.26A1.42,1.42,0,0,0,878.11,442.18Z"/><path class="cls-6" d="M882.75,442.3h0A1.43,1.43,0,0,0,881.3,444l.53,3.26a1.43,1.43,0,0,0,1.38,1.2h0a1.43,1.43,0,0,0,1.46-1.67l-.54-3.26A1.43,1.43,0,0,0,882.75,442.3Z"/><path class="cls-17" d="M833.88,421.88l35.51,9.56a6.4,6.4,0,0,1,4.52,7.84l0,.13a6.39,6.39,0,0,1-7.84,4.51l-35.51-9.55a6.39,6.39,0,0,1-4.52-7.84l0-.13A6.42,6.42,0,0,1,833.88,421.88Z"/><path class="cls-8" d="M886.69,301.1c-10.88,0-20.3,11.47-20.3,11.47,13.56,8.3,23.09,2.21,26.38-.48,1-.78,2.89-2.42,2.89-4.58Z"/></g></g></g></svg>