<?xml version="1.0" encoding="utf-8"?>
<!-- Generator: Adobe Illustrator 21.0.2, SVG Export Plug-In . SVG Version: 6.00 Build 0)  -->
<svg version="1.1" id="Layer_1" xmlns="http://www.w3.org/2000/svg" xmlns:xlink="http://www.w3.org/1999/xlink" x="0px" y="0px"
	 viewBox="0 0 192.8 62.4" style="enable-background:new 0 0 192.8 62.4;" xml:space="preserve">
<style type="text/css">
	.st0{fill:#FFFFFF;}
	.st1{fill:#18292F;}
	.st2{fill:#93BB3C;}
	.st3{fill:#FACA33;}
	.st4{fill:#42A3B8;}
	.st5{fill:#EE5443;}
</style>
<g id="Page-1" sketch:type="MSPage">
	<g id="Branding-Specimin" transform="translate(-374.000000, -246.000000)" sketch:type="MSArtboardGroup">
		<g id="Logo" transform="translate(373.000000, 246.000000)" sketch:type="MSLayerGroup">
			<g id="Logo-_x2B_-Border" transform="translate(0.130270, 0.000000)" sketch:type="MSShapeGroup">
				<g id="Logo---Border" transform="translate(0.476190, 0.879121)">
					<g id="Rectangle-14">
						<rect x="0.7" y="5.1" class="st0" width="57.1" height="50.4"/>
					</g>
					<g id="Rectangle-11">
						<path class="st1" d="M8.5,11.9H50c0.6,0,1.1,0.5,1.1,1.1v2.8c0,0.6-0.5,1.1-1.1,1.1H8.5c-0.6,0-1.1-0.5-1.1-1.1V13
							C7.4,12.4,7.9,11.9,8.5,11.9z"/>
					</g>
					<g id="Rectangle-11_1_">
						<path class="st2" d="M8.5,19.7h2.8c0.6,0,1.1,0.5,1.1,1.1v2.8c0,0.6-0.5,1.1-1.1,1.1H8.5c-0.6,0-1.1-0.5-1.1-1.1v-2.8
							C7.4,20.2,7.9,19.7,8.5,19.7z"/>
					</g>
					<g id="Rectangle-11_2_">
						<path class="st1" d="M16.4,12.4h3.4c0.6,0,1.1,0.5,1.1,1.1v33.1c0,0.6-0.5,1.1-1.1,1.1h-3.4c-0.6,0-1.1-0.5-1.1-1.1V13.6
							C15.2,12.9,15.7,12.4,16.4,12.4z"/>
					</g>
					<g id="Rectangle-13">
						<path class="st3" d="M23.6,22c0-0.3,0-1.1,0-1.1c0-0.6,0.5-1.1,1.1-1.1H50c0.6,0,1.1,0.5,1.1,1.1v2.8c0,0.6-0.5,1.1-1.1,1.1
							H24.8c-0.6,0-1.1-0.5-1.1-1.1V22z"/>
					</g>
					<g id="Rectangle-19">
						<path class="st4" d="M8.5,27.6h2.8c0.6,0,1.1,0.5,1.1,1.1v2.8c0,0.6-0.5,1.1-1.1,1.1H8.5c-0.6,0-1.1-0.5-1.1-1.1v-2.8
							C7.4,28.1,7.9,27.6,8.5,27.6z"/>
					</g>
					<g id="Rectangle-18">
						<path class="st1" d="M16.4,27.6h25.8c0.6,0,1.1,0.5,1.1,1.1v2.8c0,0.6-0.5,1.1-1.1,1.1H16.4c-0.6,0-1.1-0.5-1.1-1.1v-2.8
							C15.2,28.1,15.7,27.6,16.4,27.6z"/>
					</g>
					<g id="Rectangle-24">
						<path class="st5" d="M8.5,35.4h2.8c0.6,0,1.1,0.5,1.1,1.1v2.8c0,0.6-0.5,1.1-1.1,1.1H8.5c-0.6,0-1.1-0.5-1.1-1.1v-2.8
							C7.4,35.9,7.9,35.4,8.5,35.4z"/>
					</g>
					<g id="Rectangle-21">
						<path class="st4" d="M24.8,35.4H50c0.6,0,1.1,0.5,1.1,1.1v2.8c0,0.6-0.5,1.1-1.1,1.1H24.8c-0.6,0-1.1-0.5-1.1-1.1v-2.8
							C23.6,35.9,24.1,35.4,24.8,35.4z"/>
					</g>
					<g id="Rectangle-29">
						<path class="st1" d="M8.5,43.3H27c0.6,0,1.1,0.5,1.1,1.1v2.8c0,0.6-0.5,1.1-1.1,1.1H8.5c-0.6,0-1.1-0.5-1.1-1.1v-2.8
							C7.4,43.8,7.9,43.3,8.5,43.3z"/>
					</g>
					<g id="Rectangle-25">
						<path class="st2" d="M32,43.3H50c0.6,0,1.1,0.5,1.1,1.1v2.8c0,0.6-0.5,1.1-1.1,1.1H32c-0.6,0-1.1-0.5-1.1-1.1v-2.8
							C30.9,43.8,31.4,43.3,32,43.3z"/>
					</g>
					<g id="Rectangle-25_1_">
						<path class="st5" d="M47.2,27.6H50c0.6,0,1.1,0.5,1.1,1.1v2.8c0,0.6-0.5,1.1-1.1,1.1h-2.8c-0.6,0-1.1-0.5-1.1-1.1v-2.8
							C46,28.1,46.5,27.6,47.2,27.6z"/>
					</g>
				</g>
			</g>
		</g>
	</g>
</g>
<g>
	<path class="st1" d="M75.1,23c-0.6-0.2-1.3-0.4-1.8-0.4c-1.3,0-2.1,0.7-2.1,2.6v1.1h3.2v4.1h-3.2v13.7H66V30.4h-2.4v-3.9l2.4-0.2
		v-1c0-3.8,1.8-6.9,6.6-6.9c1.5,0,2.8,0.4,3.6,0.6L75.1,23z"/>
	<path class="st1" d="M84.6,25.8c4.5,0,8.7,3.4,8.7,9.4s-4.2,9.4-8.7,9.4c-4.5,0-8.7-3.4-8.7-9.4S80.1,25.8,84.6,25.8z M84.6,40.3
		c2.2,0,3.3-2,3.3-5.1s-1.1-5.1-3.3-5.1c-2.2,0-3.3,2-3.3,5.1S82.5,40.3,84.6,40.3z"/>
	<path class="st1" d="M97,26.3h4.3l0.4,3.1h0.1c1.3-2.4,3.2-3.6,5.1-3.6c1,0,1.6,0.1,2.1,0.4l-0.9,4.6c-0.6-0.2-1.2-0.3-1.9-0.3
		c-1.3,0-3,0.9-3.9,3.3v10.4H97V26.3z"/>
	<path class="st1" d="M111.3,26.3h4.3l0.4,2.3h0.1c1.5-1.5,3.1-2.7,5.4-2.7c2.5,0,4,1.1,4.9,3c1.6-1.6,3.2-3,5.6-3
		c3.9,0,5.6,2.7,5.6,7.2v11.1h-5.3V33.7c0-2.6-0.7-3.4-2.2-3.4c-0.9,0-1.9,0.6-3.1,1.7v12.1h-5.3V33.7c0-2.6-0.7-3.4-2.2-3.4
		c-0.9,0-1.9,0.6-3,1.7v12.1h-5.3V26.3z"/>
	<path class="st1" d="M142.8,18.5h3v22.3c0,0.9,0.4,1.3,0.8,1.3c0.2,0,0.3,0,0.6-0.1l0.4,2.2c-0.4,0.2-0.9,0.3-1.7,0.3
		c-2.2,0-3.1-1.4-3.1-4V18.5z"/>
	<path class="st1" d="M158.5,26.2c4.5,0,7,3.2,7,8.2c0,0.6,0,1.2-0.1,1.6h-11.8c0.2,3.8,2.5,6.2,5.8,6.2c1.7,0,3.1-0.5,4.4-1.4
		l1,1.9c-1.5,1-3.4,1.8-5.8,1.8c-4.7,0-8.4-3.4-8.4-9.1C150.6,29.7,154.5,26.2,158.5,26.2z M162.9,34.1c0-3.6-1.6-5.5-4.3-5.5
		c-2.4,0-4.7,2-5,5.5H162.9z"/>
	<path class="st1" d="M169.8,29.1h-2.6v-2.2l2.7-0.2l0.4-4.9h2.5v4.9h4.7v2.4h-4.7v9.7c0,2.2,0.7,3.4,2.7,3.4c0.6,0,1.4-0.3,2-0.5
		l0.6,2.2c-1,0.3-2.2,0.6-3.2,0.6c-3.7,0-5-2.4-5-5.8V29.1z"/>
	<path class="st1" d="M181,40.2c1.5,1.2,3.1,2.1,5.1,2.1c2.3,0,3.5-1.2,3.5-2.7c0-1.8-2.1-2.6-4-3.3c-2.5-0.9-5.2-2.1-5.2-5
		c0-2.8,2.2-5,6-5c2.2,0,4.1,0.9,5.4,2l-1.4,1.9c-1.2-0.9-2.4-1.5-4-1.5c-2.2,0-3.2,1.2-3.2,2.5c0,1.6,1.9,2.3,3.9,3
		c2.5,0.9,5.3,2,5.3,5.3c0,2.8-2.3,5.2-6.4,5.2c-2.5,0-4.9-1-6.5-2.4L181,40.2z"/>
</g>
</svg>
