<svg xmlns="http://www.w3.org/2000/svg" viewBox="0 0 102 90"><defs><style>.cls-1{fill:#fff;}.cls-2{fill:#122d3d;}.cls-3{fill:#2892d7;}.cls-4{fill:#1d70a2;}.cls-5{fill:#db5461;}.cls-6{fill:#593c8f;}</style></defs><title>timetable-black</title><g id="Layer_2" data-name="Layer 2"><g id="Layer_1-2" data-name="Layer 1"><rect id="Rectangle-14" class="cls-1" width="102" height="90"/><rect id="Rectangle-11" class="cls-2" x="11.89" y="12.12" width="78" height="9" rx="2" ry="2"/><rect id="Rectangle-11-2" data-name="Rectangle-11" class="cls-2" x="45.89" y="13.12" width="10" height="63" rx="2" ry="2"/><path id="Rectangle-29" class="cls-2" d="M39.52,68.12H62.27c.76,0,1.37.9,1.37,2v5c0,1.11-.61,2-1.37,2H39.52c-.76,0-1.38-.89-1.38-2v-5C38.14,69,38.76,68.12,39.52,68.12Z"/><rect class="cls-3" x="11.89" y="26.12" width="29.83" height="9" rx="2" ry="2"/><rect class="cls-4" x="11.89" y="54.31" width="29.83" height="9" rx="2" ry="2"/><rect class="cls-3" x="11.89" y="68.12" width="22" height="9" rx="2" ry="2"/><rect class="cls-5" x="25.1" y="40.5" width="16.62" height="9" rx="2" ry="2"/><rect class="cls-6" x="11.89" y="40.5" width="9" height="9" rx="2" ry="2"/><rect class="cls-4" x="60.06" y="40.5" width="29.83" height="9" rx="2" ry="2"/><rect class="cls-4" x="67.89" y="68.12" width="22" height="9" rx="2" ry="2"/><rect class="cls-6" x="60.08" y="54.31" width="16.62" height="9" rx="2" ry="2"/><rect class="cls-5" x="80.89" y="54.31" width="9" height="9" rx="2" ry="2"/><rect class="cls-6" x="60.08" y="26.12" width="16.62" height="9" rx="2" ry="2"/><rect class="cls-3" x="80.89" y="26.12" width="9" height="9" rx="2" ry="2"/></g></g></svg>